<?xml version="1.0" encoding="UTF-8" standalone="no"?>
<!-- Created with Inkscape (http://www.inkscape.org/) -->

<svg
   xmlns:dc="http://purl.org/dc/elements/1.1/"
   xmlns:cc="http://creativecommons.org/ns#"
   xmlns:rdf="http://www.w3.org/1999/02/22-rdf-syntax-ns#"
   xmlns:svg="http://www.w3.org/2000/svg"
   xmlns="http://www.w3.org/2000/svg"
   xmlns:sodipodi="http://sodipodi.sourceforge.net/DTD/sodipodi-0.dtd"
   xmlns:inkscape="http://www.inkscape.org/namespaces/inkscape"
   width="210mm"
   height="297mm"
   viewBox="0 0 210 297"
   version="1.1"
   id="svg5324"
   inkscape:version="0.92.4 (5da689c313, 2019-01-14)"
   sodipodi:docname="dino.svg">
  <title
     id="title5491">Dino</title>
  <defs
     id="defs5318" />
  <sodipodi:namedview
     id="base"
     pagecolor="#ffffff"
     bordercolor="#666666"
     borderopacity="1.0"
     inkscape:pageopacity="0.0"
     inkscape:pageshadow="2"
     inkscape:zoom="1.1698948"
     inkscape:cx="326.30087"
     inkscape:cy="593.94519"
     inkscape:document-units="mm"
     inkscape:current-layer="layer1"
     showgrid="false"
     inkscape:window-width="1930"
     inkscape:window-height="1768"
     inkscape:window-x="729"
     inkscape:window-y="155"
     inkscape:window-maximized="0" />
  <metadata
     id="metadata5321">
    <rdf:RDF>
      <cc:Work
         rdf:about="">
        <dc:format>image/svg+xml</dc:format>
        <dc:type
           rdf:resource="http://purl.org/dc/dcmitype/StillImage" />
        <dc:title>Dino</dc:title>
      </cc:Work>
    </rdf:RDF>
  </metadata>
  <g
     inkscape:label="Layer 1"
     inkscape:groupmode="layer"
     id="layer1">
    <path
       style="opacity:1;fill:#f26200;fill-opacity:1;stroke:none;stroke-width:1;stroke-linecap:round;stroke-linejoin:round;stroke-miterlimit:4;stroke-dasharray:none;stroke-dashoffset:0;stroke-opacity:1"
       d="m 44.627516,221.62074 -17.813504,29.62667 2.437638,4.12523 17.813504,1.12506 c 0,0 16.31342,0 16.68844,-2.25012 0.375023,-2.25013 -9.000505,-3.93772 -9.000505,-3.93772 l 1.687594,-21.1887 z"
       id="path5339"
       inkscape:connector-curvature="0" />
    <path
       style="opacity:1;fill:#f26200;fill-opacity:1;stroke:none;stroke-width:3.77952766;stroke-linecap:round;stroke-linejoin:round;stroke-miterlimit:4;stroke-dasharray:none;stroke-dashoffset:0;stroke-opacity:1"
       d="m 528.05469,167.48047 c -39.98644,0.30279 -78.47184,6.9293 -106.37696,25.22265 -63.78312,41.81339 -41.10546,113.39258 -41.10546,113.39258 0,0 21.97093,116.22603 7.79687,168.66992 -14.17401,52.4439 -30.47543,98.50953 -76.54102,107.72266 -118.62149,10.36649 -20.82821,-133.50409 -33.30859,-197.01758 -9.2537,-47.09274 -53.11267,-93.4821 -87.16992,-97.09179 -23.17498,-2.45629 -109.848846,3.54177 -122.605469,39.68554 0,0 41.104249,-9.92027 72.287109,28.34961 31.18286,38.26988 -37.56055,145.28321 -37.56055,145.28321 -227.72571,285.82809 112.97174,495.82899 335.92383,337.34179 51.02653,-39.6873 73.70455,-168.67096 72.28711,-205.52344 -1.4174,-36.85247 -4.96094,-207.65039 -4.96094,-207.65039 0,0 2.12927,-55.22443 27.64063,-75.12109 22.30596,-17.39673 43.78958,-20.491 64.84765,-17.09961 4.60259,19.06272 12.92154,52.45972 15.94336,57.49609 3.68746,6.14574 21.74359,-29.77702 26.48047,-44.05859 5.52713,2.3043 11.041,4.68343 16.55274,7.00977 0.91429,12.09656 3.14811,34.8449 7.28515,38.46484 5.6696,4.9609 16.30078,-8.50391 16.30078,-8.50391 0,0 4.93742,-10.39128 6.5625,-18.77148 9.85032,2.85013 19.73205,4.62557 29.6875,4.49023 l 4.85352,10.0293 c 0,0 13.46489,16.29964 18.42578,13.46484 3.51281,-2.00731 5.59524,-19.26989 6.01367,-31.95898 33.43264,-25.84094 29.55743,-88.35037 15.95701,-113.32445 -17.6598,-32.42821 -57.40473,-49.61005 -92.83982,-61.65797 -36.15809,-12.29374 -90.96582,-19.23305 -142.37695,-18.84375 z"
       transform="scale(0.26458333)"
       id="path5337"
       inkscape:connector-curvature="0"
       sodipodi:nodetypes="sscscsscsccccscccccccccccsss" />
    <path
       style="opacity:1;fill:#f26200;fill-opacity:1;stroke:none;stroke-width:1;stroke-linecap:round;stroke-linejoin:round;stroke-miterlimit:4;stroke-dasharray:none;stroke-dashoffset:0;stroke-opacity:1"
       d="m 118.69419,163.11744 c 0,0 13.87578,-2.25013 19.87612,1.50008 6.00034,3.75021 1.31257,8.25047 1.31257,8.25047 l 4.50026,0.93755 6.93789,-3.37519 -1.50009,-6.37536 c 0,0 -4.12523,-5.25029 -10.87561,-6.00034 -6.75038,-0.75004 -15.00085,0 -16.68844,0.18751 -1.6876,0.18751 -3.5627,4.87528 -3.5627,4.87528 z"
       id="path5345"
       inkscape:connector-curvature="0" />
    <path
       inkscape:connector-curvature="0"
       id="path5480"
       d="m 44.627516,221.62074 -17.813504,29.62667 2.437638,4.12523 17.813504,1.12506 c 0,0 16.31342,0 16.68844,-2.25012 0.375023,-2.25013 -9.000505,-3.93772 -9.000505,-3.93772 l 1.687594,-21.1887 z"
       style="opacity:1;fill:#000000;fill-opacity:0.30232558;stroke:none;stroke-width:1;stroke-linecap:round;stroke-linejoin:round;stroke-miterlimit:4;stroke-dasharray:none;stroke-dashoffset:0;stroke-opacity:1" />
    <path
       inkscape:connector-curvature="0"
       id="path5489"
       d="m 118.69419,163.11744 c 0,0 13.87578,-2.25013 19.87612,1.50008 6.00034,3.75021 1.31257,8.25047 1.31257,8.25047 l 4.50026,0.93755 6.93789,-3.37519 -1.50009,-6.37536 c 0,0 -4.12523,-5.25029 -10.87561,-6.00034 -6.75038,-0.75004 -15.00085,0 -16.68844,0.18751 -1.6876,0.18751 -3.5627,4.87528 -3.5627,4.87528 z"
       style="opacity:1;fill:#000000;fill-opacity:0.32945737;stroke:none;stroke-width:1;stroke-linecap:round;stroke-linejoin:round;stroke-miterlimit:4;stroke-dasharray:none;stroke-dashoffset:0;stroke-opacity:1" />
    <path
       style="opacity:1;fill:#f2ac7e;fill-opacity:1;stroke:none;stroke-width:1;stroke-linecap:round;stroke-linejoin:round;stroke-miterlimit:4;stroke-dasharray:none;stroke-dashoffset:0;stroke-opacity:1"
       d="m 18.33976,86.497815 c -0.04226,0.104249 -0.113927,0.196096 -0.151412,0.302305 0,0 0.67981,-0.163769 1.828312,-0.251663 0.574251,-0.04395 1.265667,-0.06913 2.047937,-0.04496 0.782271,0.02417 1.655054,0.09776 2.592607,0.250113 0.937553,0.152352 1.939565,0.383908 2.979663,0.724503 0.520049,0.170299 1.049637,0.367726 1.585434,0.596347 0.535794,0.228621 1.078203,0.48845 1.623155,0.7829 0.544952,0.29445 1.092695,0.62337 1.64021,0.99115 0.547516,0.36779 1.094656,0.77404 1.638144,1.22267 0.543486,0.44863 1.083054,0.93992 1.615922,1.47691 0.532865,0.53699 1.058926,1.12002 1.57458,1.75286 0.257826,0.31643 0.490083,0.65045 0.697632,1.00098 0.20755,0.35053 0.390356,0.71736 0.550355,1.09915 0.159996,0.3818 0.297209,0.77834 0.412377,1.18856 0.115168,0.41023 0.208573,0.83439 0.281635,1.27021 0.146127,0.87163 0.21059,1.79119 0.20464,2.74815 -0.006,0.95697 -0.08235,1.95129 -0.218591,2.97088 -0.136239,1.01959 -0.332491,2.06485 -0.577226,3.12436 -0.244734,1.05951 -0.538276,2.1329 -0.869714,3.20962 -0.331441,1.07672 -0.700736,2.15648 -1.097092,3.22771 -0.396354,1.07123 -0.819359,2.13404 -1.258837,3.17707 -0.878957,2.08605 -1.822794,4.09285 -2.743502,5.92987 -0.920705,1.83702 -1.818428,3.50448 -2.606559,4.91081 -1.57626,2.81266 -2.713013,4.58215 -2.713013,4.58215 -0.941444,1.18165 -1.846378,2.35846 -2.715079,3.53002 -0.868702,1.17155 -1.701212,2.33762 -2.498556,3.49849 -0.797343,1.16087 -1.55931,2.31634 -2.286682,3.46594 -0.727371,1.1496 -1.420159,2.29358 -2.078943,3.43131 -0.658783,1.13774 -1.283755,2.26935 -1.875337,3.39463 -0.591582,1.12528 -1.149586,2.24415 -1.67535,3.35638 -0.525765,1.11224 -1.019197,2.218 -1.48053,3.3166 -0.461332,1.09859 -0.890525,2.18984 -1.28881,3.27422 -0.398286,1.08437 -0.765635,2.16177 -1.102258,3.23132 -0.336624,1.06956 -0.642977,2.13171 -0.919324,3.18586 -0.276347,1.05414 -0.522552,2.10016 -0.740007,3.1383 -0.217455,1.03815 -0.405908,2.06818 -0.565857,3.08974 -0.159948,1.02155 -0.291497,2.03471 -0.395324,3.03909 -0.103827,1.00437 -0.179836,1.99978 -0.228927,2.98638 -0.04909,0.9866 -0.07144,1.96439 -0.06718,2.93264 0.0043,0.96824 0.03472,1.92702 0.09095,2.87631 0.05623,0.94929 0.138139,1.8892 0.244946,2.81895 0.106808,0.92974 0.238805,1.84939 0.394809,2.759 0.156003,0.90961 0.336204,1.80914 0.540018,2.69803 0.203814,0.88888 0.431373,1.76741 0.681612,2.63498 0.25024,0.86757 0.523275,1.72421 0.818555,2.56987 0.29528,0.84566 0.612428,1.68004 0.951363,2.5032 0.338936,0.82317 0.699349,1.63492 1.080554,2.435 0.381206,0.80007 0.78352,1.58832 1.205612,2.36471 0.42209,0.7764 0.863909,1.54128 1.3255,2.2934 0.461591,0.75213 0.9431,1.49172 1.442806,2.21899 0.499706,0.72726 1.017991,1.44172 1.554427,2.14354 0.536436,0.70181 1.09065,1.39077 1.662431,2.06654 1.143561,1.35154 2.35674,2.6505 3.63337,3.89433 1.27663,1.24383 2.616641,2.43274 4.015257,3.56413 1.39862,1.13138 2.855585,2.20521 4.365109,3.21944 1.509525,1.01422 3.072019,1.96899 4.681368,2.86132 1.60935,0.89233 3.265427,1.72251 4.963523,2.48822 1.698093,0.76571 3.437874,1.4668 5.213633,2.10116 1.775759,0.63437 3.587819,1.20186 5.43016,1.70016 1.842341,0.4983 3.71525,0.92718 5.613096,1.28468 1.897843,0.35749 3.820689,0.64378 5.762955,0.85576 1.942264,0.21197 3.90362,0.35013 5.879227,0.41186 1.975607,0.0617 3.965078,0.0467 5.962944,-0.0465 1.997866,-0.0932 4.004024,-0.26485 6.013069,-0.5178 2.009044,-0.25295 4.020981,-0.58721 6.030123,-1.00459 2.00914,-0.41738 4.01595,-0.91777 6.01411,-1.5043 1.99815,-0.58653 3.98787,-1.2591 5.96397,-2.01951 0.98805,-0.38021 1.97286,-0.7826 2.95331,-1.20717 0.98045,-0.42456 1.95651,-0.87149 2.92799,-1.341 0.97147,-0.46951 1.93793,-0.96135 2.89904,-1.4764 0.96112,-0.51504 1.91713,-1.05319 2.86649,-1.61437 0.94937,-0.56117 1.89203,-1.14548 2.82826,-1.75338 0.93623,-0.60789 1.86571,-1.23925 2.78742,-1.89446 0.8438,-0.65628 1.6583,-1.40482 2.44378,-2.23397 0.78548,-0.82915 1.54193,-1.73909 2.26963,-2.71766 0.7277,-0.97857 1.42655,-2.026 2.09703,-3.13056 0.67048,-1.10455 1.31269,-2.26607 1.9265,-3.47317 0.6138,-1.2071 1.19932,-2.45982 1.757,-3.74603 0.55768,-1.2862 1.08746,-2.60569 1.58956,-3.94756 0.50211,-1.34187 0.97661,-2.70575 1.42369,-4.07985 0.44707,-1.3741 0.86675,-2.75846 1.25935,-4.14135 0.3926,-1.38289 0.75791,-2.76433 1.09658,-4.13257 0.33867,-1.36824 0.65056,-2.72334 0.93586,-4.0535 0.57058,-2.6603 1.03489,-5.22084 1.39526,-7.58816 0.36037,-2.36732 0.61698,-4.54173 0.77153,-6.42855 0.0773,-0.94342 0.1289,-1.81481 0.15555,-2.60294 0.0266,-0.78813 0.0281,-1.49279 0.005,-2.1022 -0.18751,-4.87528 -0.51559,-18.61045 -0.79685,-31.12678 -0.28127,-12.51633 -0.51574,-23.81405 -0.51574,-23.81405 0,0 -13.50034,14.62625 -17.06304,24.3768 -3.56269,9.75055 1.68724,26.06405 1.68724,26.06405 0,0 -6.75001,35.06403 -13.31288,40.31433 -5.56593,4.45274 -25.478229,13.67405 -45.752765,10.126 -40.156201,-10.68608 -39.495268,-51.6582 -19.876307,-83.81763 7.875445,-12.00067 9.187966,-28.314 3.750159,-36.00193 C 39.253814,87.732075 25.87846,85.744541 18.33976,86.497815 Z"
       id="path5355"
       inkscape:connector-curvature="0" />
    <path
       style="opacity:1;fill:#cbac7e;fill-opacity:1;stroke:none;stroke-width:1;stroke-linecap:round;stroke-linejoin:round;stroke-miterlimit:4;stroke-dasharray:none;stroke-dashoffset:0;stroke-opacity:1"
       d="m 90.409778,210.0927 c -6.881027,1.97421 -14.711574,3.12017 -22.7521,2.29288 -40.810894,-7.822 -43.046922,-48.73847 -25.749332,-82.20376 7.007818,-12.52715 7.164779,-28.89263 1.197343,-36.177123 -3.460713,-4.2242 -11.097172,-7.395383 -18.20963,-7.445493 1.089399,0.17453 2.620903,0.693729 3.690227,0.949779 1.118304,0.718409 2.254267,1.433291 3.386824,1.785396 1.203637,0.716319 1.632755,1.208278 2.617349,1.717868 0.492297,0.2548 0.523906,0.60418 0.970472,0.88818 0.446567,0.28401 0.868408,0.58275 1.261938,0.89659 0.393528,0.31384 0.758738,0.64272 1.091923,0.98702 0.333187,0.3443 0.63415,0.70362 0.899686,1.079 0.339863,0.4805 0.653341,0.99472 0.940512,1.53944 0.287171,0.54473 0.548325,1.12026 0.782897,1.72289 0.234574,0.60264 0.442706,1.23249 0.624768,1.886713 0.182065,0.65423 0.338027,1.33293 0.467672,2.03244 0.129649,0.6995 0.233254,1.42006 0.310576,2.15852 0.07732,0.73846 0.128389,1.4944 0.15348,2.2655 0.02509,0.77109 0.02395,1.55695 -0.0031,2.35437 -0.02705,0.79742 -0.08006,1.60672 -0.159163,2.42414 -0.0791,0.81743 -0.184163,1.64316 -0.315227,2.47427 -0.131064,0.83112 -0.288359,1.66731 -0.471289,2.50579 -0.182931,0.83849 -0.391613,1.67918 -0.626319,2.51871 -0.234707,0.83954 -0.495472,1.67824 -0.781865,2.51251 -0.286391,0.83427 -0.598393,1.6645 -0.936377,2.48719 -0.337984,0.82269 -0.701918,1.63795 -1.091406,2.44274 -0.389485,0.80479 -0.804505,1.59861 -1.245401,2.37918 -0.440897,0.78058 -0.907699,1.5475 -1.399916,2.29754 -1.226185,2.00996 -2.378213,4.05439 -3.45095,6.12366 -1.07274,2.06927 -2.065877,4.16352 -2.974496,6.273 -0.908619,2.10948 -1.73269,4.23438 -2.466517,6.36499 -0.366914,1.0653 -0.711282,2.13228 -1.032494,3.19928 -0.321215,1.067 -0.619305,2.13401 -0.893485,3.20032 -0.27418,1.06632 -0.524531,2.13191 -0.750342,3.19516 -0.225812,1.06324 -0.426956,2.12393 -0.603065,3.18172 -0.176109,1.05778 -0.327094,2.11265 -0.452168,3.16259 -0.125074,1.04994 -0.224438,2.09499 -0.29714,3.1347 -0.0727,1.0397 -0.118978,2.07401 -0.137975,3.1011 -0.019,1.02709 -0.01072,2.04716 0.02532,3.05924 0.03604,1.01209 0.09982,2.01597 0.192235,3.01067 0.09241,0.9947 0.213683,1.98046 0.363802,2.95538 0.15012,0.97492 0.329309,1.93905 0.53847,2.89181 0.209161,0.95276 0.448249,1.89384 0.717785,2.82205 0.269537,0.92821 0.569474,1.84378 0.900719,2.74505 0.331247,0.90127 0.693499,1.78836 1.087789,2.6603 0.39429,0.87195 0.820841,1.7286 1.279509,2.56884 0.458669,0.84024 0.94995,1.66399 1.47433,2.47013 0.52438,0.80615 1.081855,1.59454 1.673283,2.3642 0.591426,0.76966 1.216562,1.52075 1.87637,2.25154 0.659807,0.7308 1.354071,1.4416 2.083593,2.13114 0.729522,0.68954 1.49438,1.35759 2.294951,2.00349 0.800571,0.6459 1.636972,1.26927 2.509925,1.86914 0.872953,0.59987 1.78236,1.17609 2.729031,1.72754 0.946671,0.55146 1.930554,1.07858 2.952274,1.57924 1.021723,0.50065 2.081543,0.97518 3.179651,1.42265 1.098108,0.44747 2.234301,0.86745 3.410127,1.25935 1.17583,0.3919 2.390892,0.7554 3.645774,1.08934 1.267158,0.22175 2.533168,0.39411 3.794085,0.52038 1.260914,0.12628 2.516785,0.20662 3.764627,0.24598 1.247843,0.0394 2.487593,0.0374 3.715535,-0.002 1.227942,-0.039 2.444041,-0.11498 3.645255,-0.22376 1.201213,-0.10878 2.387682,-0.25012 3.555338,-0.42013 1.167657,-0.17 2.316449,-0.36851 3.443719,-0.59117 1.127271,-0.22267 2.232917,-0.46963 3.312975,-0.73639 1.080058,-0.26677 2.134515,-0.55346 3.16053,-0.85577 1.026017,-0.3023 2.023303,-0.62053 2.98845,-0.94981 0.965147,-0.32927 1.898245,-0.66983 2.795693,-1.01751 0.470641,-0.18233 0.842354,-0.37457 1.292945,-0.56017 z"
       id="path5395"
       inkscape:connector-curvature="0"
       sodipodi:nodetypes="cccccccccccccccccsscccccsccccscccccsccsccssccscccsssccscccccscccccccc" />
    <path
       style="opacity:1;fill:#000000;fill-opacity:0.19379845;stroke:none;stroke-width:3.77952766;stroke-linecap:round;stroke-linejoin:round;stroke-miterlimit:4;stroke-dasharray:none;stroke-dashoffset:0;stroke-opacity:1"
       d="m 69.267578,803.50781 c 1.401613,1.77399 2.78926,3.5584 4.251953,5.28711 4.322121,5.10818 8.907364,10.01766 13.732422,14.71875 4.825058,4.70109 9.889674,9.19459 15.175777,13.47071 5.28613,4.27608 10.79276,8.33465 16.49805,12.16796 5.70529,3.83328 11.61078,7.44187 17.69336,10.81446 6.08258,3.37258 12.34177,6.51027 18.75977,9.40429 6.41799,2.89403 12.99354,5.54383 19.70507,7.94141 6.71153,2.39762 13.56026,4.54244 20.52344,6.42578 6.96318,1.88334 14.04188,3.50429 21.21485,4.85547 7.17295,1.35114 14.4404,2.43319 21.78125,3.23437 7.34084,0.80115 14.75384,1.32334 22.2207,1.55665 7.46686,0.23319 14.98612,0.17842 22.53711,-0.17383 7.55099,-0.35225 15.13332,-1.00296 22.72656,-1.95899 7.59324,-0.95603 15.19741,-2.21937 22.79102,-3.79687 7.5936,-1.5775 15.17836,-3.46874 22.73047,-5.68555 7.55206,-2.21681 15.07229,-4.75687 22.54101,-7.63086 3.73436,-1.43701 7.45647,-2.95978 11.16211,-4.56445 3.70564,-1.60464 7.39467,-3.29383 11.06641,-5.06836 3.67169,-1.77453 7.32449,-3.63343 10.95703,-5.58008 3.63258,-1.94661 7.24585,-3.98057 10.83398,-6.10156 3.58817,-2.12096 7.15095,-4.32938 10.68946,-6.62695 3.5385,-2.29754 7.05152,-4.68378 10.53515,-7.16016 3.18917,-2.48043 6.26759,-5.30956 9.23633,-8.44336 2.96874,-3.1338 5.82776,-6.571 8.57812,-10.26953 2.75037,-3.69853 5.39169,-7.65732 7.92579,-11.83203 2.53409,-4.17468 4.96133,-8.56469 7.28125,-13.12696 2.31987,-4.56226 4.53285,-9.29889 6.64062,-14.16015 2.10777,-4.86123 4.11011,-9.84634 6.00781,-14.91797 1.89774,-5.07164 3.69111,-10.22647 5.38086,-15.41992 1.68972,-5.19345 3.27593,-10.42568 4.75977,-15.65235 1.48384,-5.22667 2.86452,-10.44979 4.14453,-15.62109 0.0878,-0.35466 0.15535,-0.69661 0.24219,-1.05078 -11.3005,19.56799 -32.64783,53.5309 -44.60456,70.17906 -14.17404,19.73546 -64.74275,47.4009 -133.23761,71.57793 -59.55931,21.023 -186.30634,-13.40734 -250.878536,-58.11246 z"
       id="path5397"
       transform="scale(0.26458333)"
       inkscape:connector-curvature="0"
       sodipodi:nodetypes="csscccccscccsssccccccccsccccccsccsscc" />
    <path
       style="opacity:1;fill:#000000;fill-opacity:0.31782945;stroke:none;stroke-width:1;stroke-linecap:round;stroke-linejoin:round;stroke-miterlimit:4;stroke-dasharray:none;stroke-dashoffset:0;stroke-opacity:1"
       d="m 81.363741,247.77427 c 0.146717,-0.90211 -4.006118,-28.55918 -7.032245,-32.92669 -2.651213,-3.8264 -0.865972,-7.73834 -0.865972,-7.73834 l 9.344099,31.46396 z"
       id="path5478"
       inkscape:connector-curvature="0"
       sodipodi:nodetypes="csccc" />
    <path
       style="opacity:1;fill:#f26100;fill-opacity:1;stroke:none;stroke-width:1;stroke-linecap:round;stroke-linejoin:round;stroke-miterlimit:4;stroke-dasharray:none;stroke-dashoffset:0;stroke-opacity:1"
       d="m 73.465524,207.10924 c 0,0 10.164192,30.82492 4.163855,41.32551 -6.00034,10.50059 -7.202638,11.54365 -9.52442,17.88701 -0.545136,1.48937 -0.14889,3.79664 -0.14889,3.79664 0,0 12.298458,2.69273 16.611201,2.31771 4.312742,-0.37502 23.43882,-0.93755 27.75156,-2.43763 4.31276,-1.50011 -0.60767,-5.78228 -3.96855,-5.40885 0,0 -3.5922,0.19298 -6.05454,-0.79832 -1.56554,-0.63026 -3.34081,-2.02488 -3.674834,-3.74056 0.685834,-2.77767 2.232684,-4.54261 4.295294,-10.73046 2.57092,-6.04262 0.92589,-30.37844 -3.160575,-38.08209 -3.854249,-7.26588 -9.26526,-18.80679 -14.515556,-18.61927"
       id="path5341"
       inkscape:connector-curvature="0"
       sodipodi:nodetypes="csscsccsccsc" />
    <path
       id="path5409"
       transform="scale(0.26458333)"
       style="opacity:1;fill:#000000;fill-opacity:0.31782945;stroke:none;stroke-width:1.13385832;stroke-linecap:round;stroke-linejoin:round;stroke-miterlimit:4;stroke-dasharray:none;stroke-dashoffset:0;stroke-opacity:1"
       d="m 417.49805,623.4043 -8.37305,15.9082 c -6.37833,17.00886 0.70812,34.72576 -6.37891,42.52148 -7.08699,7.79573 9.92194,9.92241 29.76563,6.37891 19.84358,-3.54353 42.52344,2.125 42.52344,2.125 0,0 22.67802,12.75644 23.38672,19.13477 0.21072,1.89684 0.72741,5.10552 1.24218,8.55468 -0.004,-0.18812 -0.008,-0.37622 -0.004,-0.56445 0.007,-0.14363 0.0133,-0.26002 0.0293,-0.35742 0.0458,-0.27903 0.18305,-0.38914 0.73828,-0.43555 0.0436,-0.1518 0.098,-0.29677 0.15821,-0.4414 -0.0115,-0.0156 -0.0282,-0.0269 -0.0391,-0.043 -0.0911,-0.13493 0.0567,-0.845 0.0469,-1.08594 -0.0491,-0.28271 0.1281,-0.53699 0.2207,-0.79102 0.004,-0.0113 -0.0296,0.0209 -0.0371,0.01 -0.0113,-0.0151 -0.008,-0.04 -0.0117,-0.0606 0.082,-0.47254 0.14483,-0.61352 0.27735,-0.77343 0.006,-0.0231 0.0108,-0.0417 0.0176,-0.0664 0.002,-0.011 -0.002,-0.0222 0,-0.0332 0.002,-0.24774 0.004,-0.49621 0.004,-0.74415 -0.003,-0.0385 -0.005,-0.0768 -0.008,-0.11523 -0.009,-0.0468 -0.0117,-0.0885 -0.008,-0.125 -0.002,-0.0359 -0.005,-0.0716 -0.006,-0.10742 10e-4,-0.0537 -0.0495,-0.16173 0.004,-0.16211 0.14823,-3.2e-4 0.29635,0.0119 0.44531,0.0176 0.004,-0.0873 0.007,-0.16969 0.0234,-0.29883 0.0786,-0.62385 0.039,-0.14605 0.13086,-0.60156 0.13531,-0.67249 -0.0112,-0.15332 0.14258,-0.6543 0.059,-0.037 0.0641,-0.0453 0.0625,-0.0703 1.5e-4,-0.0183 0.004,-0.0363 0.004,-0.0547 -0.008,-0.0384 -0.0238,-0.0815 -0.0234,-0.2168 2.7e-4,-0.14395 -0.003,-0.20449 -0.006,-0.30273 -0.002,-0.0657 -0.002,-0.13155 -0.002,-0.19727 -6e-5,-0.0271 -0.001,-0.0752 0,-0.0976 10e-4,-0.0996 8e-4,-0.1991 0.004,-0.29883 0.17966,0.0192 0.36175,0.0268 0.54297,0.0371 0.0631,-0.37552 0.11399,-0.75282 0.12305,-1.13672 0.0474,-0.30869 0.0918,-0.61562 0.11524,-0.92383 0.0234,-0.30821 0.0262,-0.61797 -0.006,-0.92969 -0.0292,-0.4873 0.0139,-0.57797 0.48242,-0.45898 -0.002,-0.007 0.0486,-0.22481 0.0547,-0.24805 0.0368,-0.25433 0.0669,-0.50867 0.1211,-0.75976 9.7e-4,-0.004 0.005,-0.0148 0.006,-0.0195 -0.005,-0.0164 -0.01,-0.0338 -0.008,-0.0508 0.0227,-0.16441 0.0531,-0.32871 0.0996,-0.48828 0.0227,-0.0726 0.0301,-0.17963 0.10156,-0.20117 0.016,-0.005 0.0328,-0.005 0.0488,-0.01 0.0215,-0.0897 0.0416,-0.17939 0.0605,-0.26954 -0.0118,-0.22749 0.0549,-0.44432 0.10938,-0.6621 -0.005,-0.22635 -0.008,-0.45149 0.008,-0.45704 0.005,-0.002 0.0105,-0.002 0.0156,-0.004 -9.9e-4,-0.009 -8.9e-4,-0.0189 -0.002,-0.0274 0.0213,0.003 0.0431,0.004 0.0645,0.006 0.0226,-0.19053 0.0686,-0.37349 0.12696,-0.55273 -3.86417,-3.32655 -7.54101,-6.5312 -10.28711,-9.13672 -1.62225,-1.53921 -2.94314,-2.88569 -3.83594,-3.95703 -0.8928,-1.07138 -1.35812,-1.86759 -1.26953,-2.31055 0.0884,-0.44292 -0.36472,-1.25207 -1.26172,-2.32617 -0.89696,-1.07414 -2.2387,-2.41393 -3.92187,-3.91992 -1.68318,-1.50599 -3.70846,-3.17751 -5.97852,-4.91602 -2.27006,-1.73854 -4.78379,-3.54268 -7.44141,-5.31445 -2.65761,-1.77177 -5.45881,-3.51153 -8.30468,-5.11719 -2.84587,-1.60565 -5.73747,-3.07811 -8.57227,-4.31836 -2.8348,-1.24021 -5.61389,-2.24835 -8.23828,-2.92383 -1.31221,-0.33789 -2.58442,-0.59276 -3.80664,-0.75195 -1.22226,-0.15912 -2.39459,-0.22195 -3.50195,-0.17773 -2.21469,0.0884 -4.34017,0.35453 -6.36524,0.75195 -2.02507,0.39727 -3.94922,0.92643 -5.75976,1.54102 -1.81051,0.61455 -3.50709,1.31416 -5.07813,2.05468 -1.57107,0.74056 -3.01561,1.52173 -4.32226,2.29688 -2.61336,1.55028 -4.67376,3.07816 -6.08008,4.21875 -1.40633,1.14055 -2.16016,1.89258 -2.16016,1.89258 l 15.5918,-36.14258 z m 82.1914,93.70117 c 0.0386,0.12468 0.009,0.32786 0.0762,0.41797 -0.0144,-0.11534 -0.0308,-0.23243 -0.0332,-0.34571 -0.0265,0.0189 -0.0471,-0.0855 -0.043,-0.0723 z m 10.77539,-9.25586 c -0.002,0.009 -0.004,0.0206 -0.006,0.0293 0.003,-0.009 0.005,-0.0181 0.008,-0.0274 z m -10.5039,12.14453 c 0.003,0.0206 0.005,0.038 0.008,0.0586 0.002,-0.0174 0.002,-0.0353 0.004,-0.0527 -0.004,-10e-4 -0.007,-0.005 -0.0117,-0.006 z m 0.24023,1.23828 c -0.0136,-0.008 -0.037,0.0114 -0.0586,0.0254 10e-4,0.009 0.003,0.0181 0.004,0.0274 0.0258,-0.013 0.0521,-0.0245 0.0781,-0.0371 -0.008,-0.005 -0.0153,-0.011 -0.0234,-0.0156 z m 4.28125,6.90625 c -0.0617,0.10157 -0.11986,0.20512 -0.18164,0.30664 0.0171,0.008 0.0563,0.0258 0.0723,0.0332 0.0366,-0.11323 0.0726,-0.22666 0.10937,-0.33985 z" />
    <path
       style="opacity:1;fill:#f26200;fill-opacity:1;stroke:none;stroke-width:0.30000001;stroke-linecap:round;stroke-linejoin:round;stroke-miterlimit:4;stroke-dasharray:none;stroke-dashoffset:0;stroke-opacity:1"
       d="m 109.83541,168.09279 c -1.6876,4.50026 0.18751,9.18802 -1.6876,11.25064 -1.8751,2.06262 2.62515,2.62515 7.87545,1.68759 5.25029,-0.93755 11.25063,0.56254 11.25063,0.56254 0,0 6.00034,3.37518 6.18785,5.06278 0.18751,1.6876 1.31257,6.93789 0.18751,7.31291 -1.12507,0.37502 0,2.25013 0,2.25013 0,0 9.37553,0.93755 11.43815,-0.37502 2.06261,-1.31258 2.81265,-6.75038 1.31257,-8.813 -1.50009,-2.06262 -10.6881,-9.00051 -10.50059,-9.93806 0.18751,-0.93755 -8.813,-8.06295 -13.50076,-7.87544 -4.68777,0.18751 -7.87545,3.37519 -7.87545,3.37519 l 4.12523,-9.56304 -3.18768,-5.62532"
       id="path5343"
       inkscape:connector-curvature="0" />
    <path
       style="opacity:1;fill:#000000;fill-opacity:0.48449611;stroke:none;stroke-width:1;stroke-linecap:round;stroke-linejoin:round;stroke-miterlimit:4;stroke-dasharray:none;stroke-dashoffset:0;stroke-opacity:1"
       d="m 117.71323,79.267512 c 4.38126,3.711689 12.14611,3.884118 16.66513,0.374137 5.45699,-4.238503 7.3776,-13.938885 2.81275,-19.125964 -0.79015,-0.897856 -1.77741,-1.645865 -2.88303,-2.255158 0.12853,0.101526 0.26799,0.193032 0.39068,0.299723 0.32335,0.281194 0.62602,0.580263 0.90485,0.897101 0.2853,0.324194 0.54496,0.666176 0.78032,1.023194 0.23535,0.357019 0.44618,0.729171 0.63303,1.114145 0.18685,0.384971 0.35011,0.782569 0.48989,1.190625 0.13979,0.408056 0.25622,0.826365 0.35037,1.252635 0.0942,0.426271 0.16604,0.860568 0.21601,1.300181 0.05,0.439611 0.078,0.884651 0.0853,1.332736 0.0144,0.896167 -0.0552,1.804429 -0.20308,2.705258 -0.14791,0.900833 -0.37409,1.794296 -0.67283,2.66082 -0.29875,0.866526 -0.66989,1.706335 -1.10794,2.49959 -0.43806,0.793255 -0.94311,1.540036 -1.50896,2.221053 -0.28292,0.340508 -0.58128,0.664307 -0.894,0.969449 -0.31271,0.305144 -0.63976,0.591373 -0.98082,0.856279 -0.61783,0.479882 -1.2964,0.891595 -2.019,1.234551 -0.72259,0.342953 -1.48919,0.617596 -2.28254,0.824238 -0.79336,0.206642 -1.61366,0.345053 -2.44378,0.415996 -0.83012,0.07094 -1.67032,0.07396 -2.50321,0.0098 -0.83289,-0.06414 -1.65865,-0.195681 -2.46031,-0.394293 -0.80166,-0.198609 -1.57919,-0.463865 -2.31562,-0.796332 -0.37492,-0.169262 -0.70181,-0.405948 -1.05317,-0.609783 z"
       id="path5487"
       inkscape:connector-curvature="0" />
    <path
       style="opacity:1;fill:#ffff00;fill-opacity:1;stroke:none;stroke-width:1;stroke-linecap:round;stroke-linejoin:round;stroke-miterlimit:4;stroke-dasharray:none;stroke-dashoffset:0;stroke-opacity:1"
       d="m 116.25655,59.049069 c -4.43526,4.226575 -4.69696,13.877688 -0.75004,18.563547 4.03187,4.786705 12.87082,5.33913 17.81351,1.500084 5.45699,-4.238505 7.3775,-13.938997 2.81265,-19.126077 -4.46133,-5.06945 -14.98741,-5.596239 -19.87612,-0.937554 z"
       id="path5353"
       inkscape:connector-curvature="0"
       sodipodi:nodetypes="sssss" />
  </g>
</svg>
