<?xml version="1.0" encoding="UTF-8" standalone="no"?>
<!-- Created with Inkscape (http://www.inkscape.org/) -->

<svg
   xmlns:dc="http://purl.org/dc/elements/1.1/"
   xmlns:cc="http://creativecommons.org/ns#"
   xmlns:rdf="http://www.w3.org/1999/02/22-rdf-syntax-ns#"
   xmlns:svg="http://www.w3.org/2000/svg"
   xmlns="http://www.w3.org/2000/svg"
   xmlns:sodipodi="http://sodipodi.sourceforge.net/DTD/sodipodi-0.dtd"
   xmlns:inkscape="http://www.inkscape.org/namespaces/inkscape"
   width="210mm"
   height="297mm"
   viewBox="0 0 210 297"
   version="1.1"
   id="svg5002"
   inkscape:version="0.92.4 (5da689c313, 2019-01-14)"
   sodipodi:docname="ducky.svg">
  <title
     id="title5045">Ducky</title>
  <defs
     id="defs4996" />
  <sodipodi:namedview
     id="base"
     pagecolor="#ffffff"
     bordercolor="#666666"
     borderopacity="1.0"
     inkscape:pageopacity="0.0"
     inkscape:pageshadow="2"
     inkscape:zoom="1.8122974"
     inkscape:cx="414.95684"
     inkscape:cy="511.164"
     inkscape:document-units="mm"
     inkscape:current-layer="layer1"
     showgrid="false"
     inkscape:window-width="1840"
     inkscape:window-height="2114"
     inkscape:window-x="-10"
     inkscape:window-y="0"
     inkscape:window-maximized="0" />
  <metadata
     id="metadata4999">
    <rdf:RDF>
      <cc:Work
         rdf:about="">
        <dc:format>image/svg+xml</dc:format>
        <dc:type
           rdf:resource="http://purl.org/dc/dcmitype/StillImage" />
        <dc:title>Ducky</dc:title>
      </cc:Work>
    </rdf:RDF>
  </metadata>
  <g
     inkscape:label="Layer 1"
     inkscape:groupmode="layer"
     id="layer1">
    <path
       style="opacity:1;fill:#fdf192;fill-opacity:1;stroke:none;stroke-width:0.69999999;stroke-linecap:round;stroke-linejoin:round;stroke-miterlimit:4;stroke-dasharray:none;stroke-dashoffset:0;stroke-opacity:1"
       d="m 35.928651,173.11393 c 0,0 -2.268254,68.28545 64.674289,67.43807 50.89111,-0.0648 82.77942,-34.11016 56.10903,-77.77603 -7.54421,-12.82833 -7.57417,-29.14967 -3.3373,-35.08128 4.23687,-5.93162 17.96433,-15.59168 11.86324,-41.0129 -6.1011,-25.421216 -26.77702,-30.844407 -28.47177,-31.183357 -1.69474,-0.33895 -19.97327,-3.685424 -31.74138,7.994027 -9.781939,9.708253 -13.834279,20.294048 -10.457836,38.78101 4.720486,25.84597 15.252736,26.77701 14.405356,37.96235 -0.84737,11.18534 -8.13479,28.81071 -26.099114,30.16651 -17.964327,1.3558 -33.341632,-7.70124 -37.114977,-13.55798 -3.14964,-4.88867 -6.191,-15.57611 -5.291518,-24.74206 -3.703794,5.07409 -7.724932,9.98644 -9.444956,14.42237 -2.439929,6.29255 -2.919567,11.84751 -0.443264,19.04237 1.61524,4.69305 5.3502,7.5469 5.3502,7.5469 z"
       id="path5015"
       inkscape:connector-curvature="0"
       sodipodi:nodetypes="cccsscssssscssc" />
    <path
       style="opacity:1;fill:#000000;fill-opacity:0.13565892;stroke:none;stroke-width:2.64566922;stroke-linecap:round;stroke-linejoin:round;stroke-miterlimit:4;stroke-dasharray:none;stroke-dashoffset:0;stroke-opacity:1"
       d="M 218.63477 857.77148 C 254.64461 888.58516 306.16973 910.11134 380.23242 909.17383 C 572.57677 908.92891 693.09835 780.25316 592.29688 615.2168 C 563.78333 566.73177 563.67023 505.04368 579.68359 482.625 C 595.69696 460.20628 647.58072 423.69739 624.52148 327.61719 C 613.1414 280.20024 588.34972 251.24384 565.38086 233.86914 C 568.20699 236.33368 571.03471 238.96041 573.83398 241.80664 C 576.74266 244.76411 579.62249 247.93545 582.44141 251.33203 C 585.26032 254.72862 588.01832 258.35162 590.68555 262.21484 C 593.35277 266.07807 595.9292 270.18168 598.38281 274.53906 C 600.83642 278.89645 603.16763 283.50765 605.3457 288.38672 C 607.52377 293.26579 609.54807 298.41156 611.38867 303.83984 C 613.22927 309.26812 614.88692 314.97741 616.32812 320.98242 C 617.76933 326.98743 618.91801 332.75982 619.80078 338.31055 C 620.68355 343.86127 621.29929 349.1919 621.67773 354.31055 C 622.05617 359.42919 622.19678 364.33615 622.125 369.04492 C 622.05322 373.7537 621.77063 378.26288 621.30273 382.58398 C 620.83484 386.90509 620.18099 391.0385 619.37109 394.99414 C 618.5612 398.94979 617.59389 402.72745 616.49609 406.33984 C 615.3983 409.95223 614.17142 413.40007 612.83984 416.69141 C 611.50826 419.98275 610.07181 423.11883 608.56055 426.11133 C 607.04929 429.10383 605.46301 431.95211 603.82617 434.66797 C 602.18934 437.38383 600.50322 439.9663 598.79492 442.42773 C 595.37832 447.35059 591.87196 451.7878 588.49414 455.82617 C 585.11632 459.86454 581.86711 463.50441 578.96094 466.83594 C 576.05476 470.16747 573.49191 473.18985 571.49023 475.99219 C 570.4894 477.39336 569.55154 478.94744 568.67969 480.64258 C 567.80784 482.33772 567.0025 484.17518 566.26562 486.13867 C 565.52875 488.10217 564.85957 490.19221 564.26367 492.39844 C 563.66777 494.60466 563.14425 496.92627 562.69531 499.34961 C 562.24638 501.77295 561.87215 504.29923 561.57617 506.91406 C 561.28019 509.52889 561.06281 512.23297 560.92578 515.01367 C 560.78875 517.79438 560.73185 520.65131 560.75977 523.57227 C 560.78768 526.49322 560.90076 529.47808 561.09961 532.51367 C 561.29846 535.54926 561.5832 538.63517 561.95898 541.75977 C 562.33477 544.88436 562.80067 548.04638 563.35938 551.23438 C 563.91808 554.42237 564.57074 557.63557 565.31836 560.86133 C 566.06598 564.08709 566.90903 567.32654 567.85156 570.56445 C 568.79409 573.80237 569.83508 577.03923 570.97852 580.26367 C 572.12195 583.48812 573.36842 586.69941 574.71875 589.88477 C 576.06908 593.07012 577.52467 596.22897 579.08789 599.34961 C 580.65111 602.47025 582.32142 605.55367 584.10352 608.58398 C 587.25356 613.74137 590.18782 618.86175 592.91016 623.94531 C 595.63249 629.02887 598.14352 634.07401 600.44727 639.07812 C 602.75101 644.08224 604.8479 649.0458 606.74219 653.96484 C 608.63647 658.88389 610.32832 663.75953 611.82227 668.58789 C 613.31622 673.41625 614.61211 678.19763 615.71484 682.92969 C 616.81758 687.66174 617.72661 692.34448 618.44727 696.97461 C 619.16792 701.60474 619.69919 706.18249 620.04688 710.70508 C 620.39456 715.22766 620.55912 719.69409 620.54297 724.10352 C 620.52682 728.51294 620.32984 732.86561 619.95898 737.15625 C 619.58812 741.44689 619.04262 745.67556 618.32617 749.8418 C 617.60973 754.00803 616.72283 758.11222 615.66992 762.14844 C 614.61701 766.18465 613.39782 770.15411 612.01758 774.05469 C 610.63733 777.95526 609.0969 781.78561 607.39844 785.54492 C 605.69998 789.30423 603.84348 792.99108 601.83594 796.60352 C 599.82839 800.21595 597.66884 803.75491 595.36133 807.21484 C 593.05382 810.67478 590.59835 814.05756 588 817.35938 C 585.40165 820.66119 582.66131 823.88146 579.78125 827.01953 C 576.90119 830.15761 573.88116 833.21293 570.72852 836.18164 C 567.57587 839.15036 564.28916 842.03243 560.87305 844.82617 C 557.45694 847.61991 553.91264 850.32436 550.24219 852.9375 C 546.57174 855.55064 542.77504 858.07308 538.85938 860.5 C 534.94371 862.92692 530.90956 865.25905 526.75781 867.49414 C 522.60606 869.72923 518.3377 871.86667 513.95898 873.9043 C 509.58027 875.94193 505.09069 877.88029 500.49414 879.71484 C 495.89759 881.5494 491.19394 883.28039 486.38867 884.90625 C 481.58341 886.53211 476.67673 888.05134 471.67188 889.46289 C 466.66702 890.87444 461.56446 892.17753 456.36914 893.36914 C 451.17382 894.56075 445.88447 895.64136 440.50781 896.60742 C 435.13116 897.57348 429.66606 898.42527 424.11719 899.16016 C 418.56832 899.89504 412.93657 900.51362 407.22461 901.01172 C 401.51265 901.50981 395.72139 901.88885 389.85547 902.14453 C 383.98955 902.40022 378.04787 902.53141 372.03711 902.53906 C 364.13051 902.63915 356.48011 902.48424 349.07617 902.08984 C 341.67223 901.69545 334.51542 901.06226 327.59766 900.20508 C 320.67989 899.3479 314.00082 898.26677 307.55273 896.97852 C 301.10465 895.69026 294.88746 894.19545 288.89258 892.50781 C 282.89769 890.82017 277.12654 888.94008 271.56836 886.88477 C 266.01018 884.82945 260.66531 882.59833 255.52734 880.20703 C 250.38938 877.81573 245.45689 875.26394 240.72266 872.56836 C 235.98842 869.87278 231.45247 867.03456 227.10547 864.06641 C 224.15516 862.05192 221.41307 859.89927 218.63477 857.77148 z "
       id="path5043"
       transform="scale(0.26458333)" />
    <path
       style="opacity:1;fill:#fd8721;fill-opacity:1;stroke:none;stroke-width:0.69999999;stroke-linecap:round;stroke-linejoin:round;stroke-miterlimit:4;stroke-dasharray:none;stroke-dashoffset:0;stroke-opacity:1"
       d="m 148.40893,131.37164 c 8.42985,4.5365 17.11658,5.76843 28.27407,0.50518 19.44956,-9.17481 13.84027,-20.39402 12.77667,-21.24314 -1.58651,-1.1885 -8.97745,6.38817 -15.25154,5.26853 -6.9359,-0.73009 -12.24367,-7.71928 -12.24367,-7.71928 0,0 -9.37397,-2.38499 -12.94262,0.63757 -1.66507,1.41027 -3.72478,5.65525 -4.28102,8.89993 -0.72624,4.23623 -0.88905,6.08434 -0.10857,8.97138 0.46422,1.71714 3.77668,4.67983 3.77668,4.67983 z"
       id="path5017"
       inkscape:connector-curvature="0"
       sodipodi:nodetypes="sscccssss" />
    <path
       style="opacity:1;fill:#ffffff;fill-opacity:1;stroke:none;stroke-width:0.83860582;stroke-linecap:round;stroke-linejoin:round;stroke-miterlimit:4;stroke-dasharray:none;stroke-dashoffset:0;stroke-opacity:1"
       d="m 126.74749,89.540537 c -3.35579,2.160279 -3.42859,9.153016 -0.7646,12.121893 2.11316,2.35502 7.55449,2.3981 10.20884,0.67278 2.34708,-1.5256 3.51781,-7.116661 2.37584,-9.669095 -1.72712,-3.86033 -8.26015,-5.417276 -11.82008,-3.125578 z"
       id="path5021"
       inkscape:connector-curvature="0"
       sodipodi:nodetypes="sssss" />
    <path
       style="opacity:1;fill:#ffffff;fill-opacity:1;stroke:none;stroke-width:0.83118564;stroke-linecap:round;stroke-linejoin:round;stroke-miterlimit:4;stroke-dasharray:none;stroke-dashoffset:0;stroke-opacity:1"
       d="m 154.96466,93.971619 c 2.22272,2.749597 4.72556,4.070001 8.20958,2.916187 2.35215,-0.778964 2.945,-4.134957 2.56154,-6.430021 -0.50838,-3.04267 -2.43471,-5.239382 -5.63565,-6.023487 -2.69943,-0.661255 -4.93636,0.912078 -6.0046,3.311179 -0.72515,1.628565 -0.26975,4.817302 0.86913,6.226142 z"
       id="path5023"
       inkscape:connector-curvature="0"
       sodipodi:nodetypes="ssssss" />
    <path
       sodipodi:nodetypes="sssss"
       inkscape:connector-curvature="0"
       id="path5025"
       d="m 127.00191,93.378704 c -2.79825,1.805085 -2.77985,6.509996 -0.0342,8.394106 1.98834,1.36444 4.97532,1.34121 6.62718,-0.72001 1.20292,-1.50102 1.50035,-3.608461 0.84979,-5.288691 -1.27546,-3.294223 -4.4743,-4.300301 -7.44278,-2.385405 z"
       style="opacity:0.46000001;fill:#00efff;fill-opacity:1;stroke:none;stroke-width:0.69999999;stroke-linecap:round;stroke-linejoin:round;stroke-miterlimit:4;stroke-dasharray:none;stroke-dashoffset:0;stroke-opacity:1" />
    <path
       style="opacity:0.46000001;fill:#00efff;fill-opacity:1;stroke:none;stroke-width:0.59035468;stroke-linecap:round;stroke-linejoin:round;stroke-miterlimit:4;stroke-dasharray:none;stroke-dashoffset:0;stroke-opacity:1"
       d="m 156.12898,87.687204 c -2.35994,1.522343 -2.34442,5.490295 -0.0288,7.079285 1.67689,1.15072 4.196,1.131129 5.58912,-0.60723 1.0145,-1.265906 1.26534,-3.043246 0.71669,-4.460291 -1.07568,-2.778228 -3.77347,-3.626718 -6.27698,-2.011764 z"
       id="path5027"
       inkscape:connector-curvature="0"
       sodipodi:nodetypes="sssss" />
    <path
       style="opacity:1;fill:#000000;fill-opacity:0.15503876;stroke:none;stroke-width:2.64566922;stroke-linecap:round;stroke-linejoin:round;stroke-miterlimit:4;stroke-dasharray:none;stroke-dashoffset:0;stroke-opacity:1"
       d="M 545.46289 455.13086 C 544.23012 464.51955 544.40619 470.57065 546.64062 478.83594 C 548.39516 485.32592 560.91602 496.52344 560.91602 496.52344 C 592.77687 513.66926 625.6073 518.32424 667.77734 498.43164 C 721.05389 473.29985 724.54416 444.18384 720.91992 428.79688 C 720.50242 430.6356 719.96674 432.52264 719.24609 434.46289 C 718.49265 436.49142 717.56012 438.57042 716.42188 440.6875 C 715.28363 442.80458 713.93901 444.95985 712.36133 447.14258 C 710.78365 449.3253 708.97214 451.53626 706.90039 453.76172 C 704.82864 455.98718 702.49741 458.22738 699.87695 460.47266 C 697.25649 462.71793 694.34685 464.96875 691.12305 467.21094 C 687.89925 469.45313 684.36029 471.68615 680.47852 473.90234 C 676.59674 476.11853 672.37173 478.3171 667.77734 480.48438 C 662.50609 482.97095 657.38249 485.07343 652.38672 486.81641 C 647.39094 488.55939 642.52447 489.94179 637.77148 490.98828 C 633.0185 492.03477 628.37881 492.74547 623.83594 493.14258 C 619.29306 493.53969 614.84592 493.62314 610.48047 493.41797 C 606.11502 493.2128 601.83009 492.71933 597.60938 491.95898 C 593.38866 491.19864 589.23366 490.17271 585.125 488.9043 C 581.01634 487.63589 576.95507 486.12586 572.92578 484.39648 C 568.89649 482.66711 564.89862 480.71745 560.91602 478.57422 C 560.91602 478.57422 557.7867 475.7747 554.4375 472.16406 C 552.7629 470.35874 551.03177 468.3511 549.61133 466.38867 C 548.90111 465.40746 548.26806 464.43706 547.75781 463.50977 C 547.24757 462.58247 546.85994 461.69797 546.64062 460.88672 C 546.08564 458.83379 545.77504 456.99206 545.46289 455.13086 z "
       id="path5034"
       transform="scale(0.26458333)" />
    <path
       style="opacity:1;fill:#fdf192;fill-opacity:1;stroke:none;stroke-width:2.64566922;stroke-linecap:round;stroke-linejoin:round;stroke-miterlimit:4;stroke-dasharray:none;stroke-dashoffset:0;stroke-opacity:1"
       d="M 183.45898 604.45117 C 178.90935 600.396 175.28486 596.42817 172.94531 592.79688 C 161.04116 574.32001 149.5457 533.92812 152.94531 499.28516 C 150.04451 503.25918 147.29856 507.04414 144.38281 510.95508 C 144.48416 513.73073 144.52397 516.50477 144.76758 519.2793 C 145.16037 523.75292 145.73048 528.20865 146.44727 532.5918 C 147.16405 536.97494 148.02752 541.28612 149.01172 545.4707 C 149.99592 549.65529 151.09989 553.71384 152.29492 557.5918 C 153.48995 561.46975 154.77573 565.16761 156.125 568.63086 C 157.47427 572.09411 158.88705 575.32125 160.33398 578.26172 C 161.78092 581.20218 163.26198 583.85445 164.75 586.16406 C 165.64134 587.54754 166.70403 588.97794 167.92969 590.44336 C 169.15535 591.90878 170.54456 593.40941 172.08789 594.93164 C 173.63122 596.45387 175.32946 597.99881 177.17383 599.55273 C 179.0182 601.10666 181.00796 602.66998 183.13672 604.23047 C 183.23765 604.30446 183.35743 604.3772 183.45898 604.45117 z "
       id="path5041"
       transform="scale(0.26458333)" />
  </g>
</svg>
