<?xml version="1.0" encoding="UTF-8" standalone="no"?>
<svg
   xmlns:dc="http://purl.org/dc/elements/1.1/"
   xmlns:cc="http://creativecommons.org/ns#"
   xmlns:rdf="http://www.w3.org/1999/02/22-rdf-syntax-ns#"
   xmlns:svg="http://www.w3.org/2000/svg"
   xmlns="http://www.w3.org/2000/svg"
   xmlns:xlink="http://www.w3.org/1999/xlink"
   id="svg8"
   version="1.1"
   viewBox="0 0 210 297"
   height="297mm"
   width="210mm">
  <title
     id="title4994">Piggy</title>
  <defs
     id="defs2">
    <linearGradient
       id="linearGradient4611">
      <stop
         id="stop4607"
         offset="0"
         style="stop-color:#fbbf00;stop-opacity:1;" />
      <stop
         id="stop4609"
         offset="1"
         style="stop-color:#fbbf00;stop-opacity:0;" />
    </linearGradient>
    <linearGradient
       gradientUnits="userSpaceOnUse"
       y2="481.7373"
       x2="560.93654"
       y1="481.7373"
       x1="251.46775"
       id="linearGradient4613"
       xlink:href="#linearGradient4611" />
  </defs>
  <metadata
     id="metadata5">
    <rdf:RDF>
      <cc:Work
         rdf:about="">
        <dc:format>image/svg+xml</dc:format>
        <dc:type
           rdf:resource="http://purl.org/dc/dcmitype/StillImage" />
        <dc:title>Piggy</dc:title>
      </cc:Work>
    </rdf:RDF>
  </metadata>
  <g
     id="layer1">
    <path
       transform="scale(0.26458333)"
       id="path4596"
       d="M 517.31836 429.41992 C 513.57371 426.16631 510.06134 423.20823 506.10352 419.63086 C 497.31633 411.68838 493.81925 408.31662 488.89648 403.69141 C 499.96339 417.04811 511.16463 429.94727 513.33594 429.94727 C 513.72789 429.94727 516.23348 429.54009 517.31836 429.41992 z "
       style="opacity:1;fill:#fffaaa;fill-opacity:1;stroke:#ffc800;stroke-width:0.75590551;stroke-linecap:round;stroke-linejoin:round;stroke-miterlimit:4;stroke-dasharray:none;stroke-dashoffset:0;stroke-opacity:1" />
    <path
       transform="scale(0.26458333)"
       id="path4594"
       d="M 618.44141 282.19141 C 618.44141 282.19141 617.14771 282.12524 615.84766 282.44531 C 615.19763 282.60535 614.54568 282.86196 614.05273 283.27148 C 613.55979 283.68101 613.22735 284.24363 613.21289 285.01562 C 613.19845 285.78762 612.9464 286.69084 612.42578 287.67383 C 611.90516 288.65682 611.11549 289.71949 610.02539 290.81055 C 608.93529 291.9016 607.54515 293.02101 605.82227 294.11719 C 604.09938 295.21336 602.04396 296.28679 599.625 297.28516 C 597.20604 298.28352 591.7882 300.04413 584.72266 302.43359 C 577.65711 304.82306 568.94294 307.84135 559.93359 311.35156 C 555.42892 313.10667 550.85104 314.98415 546.36719 316.96875 C 541.88333 318.95335 537.49433 321.04431 533.36914 323.22461 C 529.24395 325.40491 525.3818 327.67538 521.95312 330.01758 C 520.23879 331.18868 518.63311 332.37679 517.15625 333.58203 C 515.67939 334.78727 514.33192 336.00899 513.13477 337.24414 C 510.74045 339.71445 508.42036 342.47053 506.19336 345.40234 C 503.96636 348.33415 501.83252 351.44201 499.81055 354.61523 C 497.78857 357.78846 495.87886 361.02614 494.09961 364.2207 C 492.32036 367.41527 490.67069 370.56669 489.17188 373.5625 C 486.17425 379.55413 483.7766 384.92854 482.12695 388.80469 C 480.97392 391.51395 480.71304 392.23071 480.34375 393.17578 C 483.99319 397.70709 484.76759 398.70822 488.89648 403.69141 C 493.81925 408.31662 497.31633 411.68838 506.10352 419.63086 C 510.06134 423.20823 513.57371 426.16631 517.31836 429.41992 C 528.88205 428.13901 574.99447 420.34144 593.5625 404.55859 C 613.87255 387.29503 618.44116 354.79931 616.41016 342.61328 C 614.37915 330.42724 619.45703 292.3457 619.45703 292.3457 L 618.44141 282.19141 z "
       style="opacity:1;fill:#ffb7aa;fill-opacity:1;stroke:#ffc800;stroke-width:0.75590551;stroke-linecap:round;stroke-linejoin:round;stroke-miterlimit:4;stroke-dasharray:none;stroke-dashoffset:0;stroke-opacity:1" />
    <path
       transform="scale(0.26458333)"
       id="path4540"
       d="M 615.83984 282.06445 C 614.50699 282.19139 613.10934 282.6994 612.85547 284.22266 C 612.34773 287.26917 607.77807 291.8382 597.62305 294.37695 C 587.46802 296.91571 528.06186 304.53131 506.22852 321.28711 C 484.39521 338.04291 464.5918 373.58594 464.5918 373.58594 C 464.5918 373.58594 473.18818 384.29109 480.34375 393.17578 C 480.71304 392.23071 480.97392 391.51395 482.12695 388.80469 C 483.7766 384.92854 486.17425 379.55413 489.17188 373.5625 C 490.67069 370.56669 492.32036 367.41527 494.09961 364.2207 C 495.87886 361.02614 497.78857 357.78846 499.81055 354.61523 C 501.83252 351.44201 503.96636 348.33415 506.19336 345.40234 C 508.42036 342.47053 510.74045 339.71445 513.13477 337.24414 C 514.33192 336.00899 515.67939 334.78727 517.15625 333.58203 C 518.63311 332.37679 520.23879 331.18868 521.95312 330.01758 C 525.3818 327.67538 529.24395 325.40491 533.36914 323.22461 C 537.49433 321.04431 541.88333 318.95335 546.36719 316.96875 C 550.85104 314.98415 555.42892 313.10667 559.93359 311.35156 C 568.94294 307.84135 577.65711 304.82306 584.72266 302.43359 C 591.7882 300.04413 597.20604 298.28352 599.625 297.28516 C 602.04396 296.28679 604.09938 295.21336 605.82227 294.11719 C 607.54515 293.02101 608.93529 291.9016 610.02539 290.81055 C 611.11549 289.71949 611.90516 288.65682 612.42578 287.67383 C 612.9464 286.69084 613.19845 285.78762 613.21289 285.01562 C 613.22735 284.24363 613.55979 283.68101 614.05273 283.27148 C 614.54568 282.86196 615.19763 282.60535 615.84766 282.44531 C 617.14771 282.12524 618.44141 282.19141 618.44141 282.19141 C 618.44141 282.19141 617.17269 281.93752 615.83984 282.06445 z "
       style="opacity:1;fill:#ffe3aa;fill-opacity:1;stroke:#ffc800;stroke-width:0.75590551;stroke-linecap:round;stroke-linejoin:round;stroke-miterlimit:4;stroke-dasharray:none;stroke-dashoffset:0;stroke-opacity:1" />
    <path
       id="path4570"
       d="m 147.35237,185.09262 c -0.44745,1.45213 -0.15871,1.79999 -0.13974,2.55251 0,0 -0.88179,1.35738 -2.77828,1.10159 -1.53974,-0.20767 -2.98239,-1.34343 -3.25107,-2.14949 -0.26869,-0.80605 -1.60133,-4.05712 -1.60133,-4.05712 l 2.55251,-6.44845 4.03026,1.47786 c 0,0 3.64327,1.89666 4.54621,3.57325 0.37473,0.69581 0.45341,1.77071 0.19882,2.49882 -0.34216,0.97859 -0.83482,1.33124 -1.78947,1.46709 -0.59931,-0.37808 -1.27418,-0.27691 -1.76791,-0.0161 z"
       style="opacity:0.82300002;fill:#ff752c;fill-opacity:1;stroke:#ca4900;stroke-width:0.2;stroke-linecap:round;stroke-linejoin:round;stroke-miterlimit:4;stroke-dasharray:none;stroke-dashoffset:0;stroke-opacity:1" />
    <path
       id="path4572"
       d="m 70.336326,184.04472 c 0,0 -1.819656,-0.10721 -2.928801,0.89727 -0.695988,-0.40659 -1.937101,-3.02774 -1.434529,-4.41724 0.247782,-0.68506 1.250162,-1.90533 2.342907,-2.43413 3.329808,-1.61136 5.5681,-0.89664 8.232202,-1.11753 0,0 0.633797,6.47971 -0.499634,9.40872 -0.334924,0.8655 -1.826775,1.92974 -1.826775,1.92974 0,0 -1.786051,0.67053 -3.020123,0.13963 -0.999483,-0.42998 -2.063442,-1.98312 -2.063442,-1.98312 0,0 0.846555,-1.21439 1.198195,-2.42334 z"
       style="opacity:1;fill:#ff7931;fill-opacity:1;stroke:#cd5824;stroke-width:0.2;stroke-linecap:round;stroke-linejoin:round;stroke-miterlimit:4;stroke-dasharray:none;stroke-dashoffset:0;stroke-opacity:1" />
    <path
       transform="scale(0.26458333)"
       id="path4568"
       d="M 420.03906,553.1543 C 372.32278,552.95807 319.375,565.51562 319.375,565.51562 c -1.27409,17.7168 -2.93117,40.47952 -3.82227,53.1504 -4.95577,8.45167 -30.38131,33.47226 -45.57197,50.20839 l 20.1278,17.77226 22.61019,-24.24823 c -2.09747,34.90309 -3.5142,66.58099 -1.97461,69.66015 3.55426,7.10854 55.85156,27.92579 55.85156,27.92579 0,0 116.2756,-24.37117 118.30664,-24.87891 2.03101,-0.50774 17.77149,-9.64844 17.77149,-9.64844 0,0 2.31099,-30.05834 0.93555,-66.17187 11.62625,14.86612 23.94531,30.63086 23.94531,30.63086 l 24.8789,-18.78711 -53.35547,-61.3086 c -3.14146,-9.07051 -3.24508,-17.87161 -5.54296,-26.02539 -6.64044,-23.56285 -38.67611,-30.49743 -73.4961,-30.64062 z"
       style="opacity:1;fill:#ffeeaa;fill-opacity:1;stroke:#ffec77;stroke-width:0.75590551;stroke-linecap:round;stroke-linejoin:round;stroke-miterlimit:4;stroke-dasharray:none;stroke-dashoffset:0;stroke-opacity:1" />
    <path
       transform="scale(0.26458333)"
       id="path4605"
       d="M 322.14062 387.11719 C 329.95306 378.57967 335.22105 370.64685 333.5918 365.46289 C 328.00653 347.69158 302.61932 327.37982 287.89453 318.74805 C 273.16974 310.11626 219.85663 300.97845 213.25586 300.4707 C 206.65509 299.96295 200.05469 284.73047 200.05469 284.73047 C 200.05469 284.73047 200.36551 285.71988 200.93555 287.22266 C 201.50558 288.72543 202.33381 290.73986 203.36523 292.79297 C 204.39666 294.84608 205.63144 296.9369 207.01562 298.58789 C 207.70772 299.41339 208.43735 300.1294 209.19727 300.67578 C 209.95718 301.22216 210.74835 301.59983 211.5625 301.74805 C 213.19081 302.04447 217.6676 303.17881 223.68164 304.87109 C 229.69568 306.56338 237.24569 308.81262 245.02344 311.3418 C 252.80118 313.87097 260.80715 316.67923 267.72656 319.48633 C 271.18627 320.88988 274.37346 322.29389 277.12695 323.66211 C 279.88045 325.03033 282.19844 326.36198 283.91797 327.625 C 287.35702 330.15104 291.38514 333.47292 295.54883 337.31836 C 297.63067 339.24108 299.7458 341.29401 301.83984 343.44531 C 303.93388 345.59662 306.00641 347.84582 308 350.1582 C 309.99359 352.47058 311.90895 354.84601 313.68945 357.25195 C 315.46995 359.6579 317.11555 362.09535 318.57031 364.52734 C 320.02508 366.95934 321.2883 369.38681 322.30469 371.77734 C 323.32108 374.16788 324.09127 376.52117 324.55664 378.80273 C 324.78932 379.94352 324.70777 381.17504 324.35352 382.48242 C 323.99926 383.7898 323.37074 385.17298 322.50586 386.61523 C 322.40911 386.77657 322.24323 386.95439 322.14062 387.11719 z "
       style="opacity:1;fill:#ffdbaa;fill-opacity:1;stroke:#ffd700;stroke-width:0.75590551;stroke-linecap:round;stroke-linejoin:round;stroke-miterlimit:4;stroke-dasharray:none;stroke-dashoffset:0;stroke-opacity:1" />
    <path
       transform="scale(0.26458333)"
       id="path4603"
       d="M 262.98047 432.37305 C 264.69552 432.39217 267.58594 432.48438 267.58594 432.48438 C 267.58594 432.48438 281.60041 422.73276 296.69922 410.48828 C 294.34563 412.1912 292.07974 413.93223 289.66797 415.57617 C 285.01618 418.74698 280.33632 421.77642 275.93164 424.53516 C 271.52696 427.2939 267.39858 429.78209 263.85156 431.875 C 263.33075 432.18231 263.47525 432.08323 262.98047 432.37305 z "
       style="opacity:1;fill:#fffaaa;fill-opacity:1;stroke:#ffd700;stroke-width:0.75590551;stroke-linecap:round;stroke-linejoin:round;stroke-miterlimit:4;stroke-dasharray:none;stroke-dashoffset:0;stroke-opacity:1" />
    <path
       transform="scale(0.26458333)"
       id="path4601"
       d="M 196.16211 279.86328 L 195.99219 279.65234 C 195.99219 279.65234 195.21992 280.75111 194.52148 283.08594 C 194.68588 282.65644 194.84549 282.06354 195.00586 281.71875 C 195.62556 280.38642 195.92648 280.13683 196.16211 279.86328 z "
       style="opacity:1;fill:#fffaaa;fill-opacity:1;stroke:#ffd700;stroke-width:0.75590551;stroke-linecap:round;stroke-linejoin:round;stroke-miterlimit:4;stroke-dasharray:none;stroke-dashoffset:0;stroke-opacity:1" />
    <path
       id="path4536"
       d="m 51.901224,74.047159 c -0.06234,0.07238 -0.141962,0.138414 -0.305924,0.490926 -0.04243,0.09123 -0.08466,0.248097 -0.128159,0.361736 -0.146598,0.490072 -0.28267,1.170964 -0.28267,2.181262 2e-6,2.283825 -4.701924,20.151258 0.537437,29.017867 4.52819,7.6631 14.969037,8.26753 17.85834,8.29975 0.130911,-0.0767 0.09268,-0.0505 0.230476,-0.13178 0.938483,-0.55374 2.030783,-1.21208 3.196188,-1.94199 1.165405,-0.72992 2.403618,-1.53146 3.634404,-2.3704 0.638114,-0.43496 1.237631,-0.89561 1.860351,-1.34617 2.417157,-1.96022 4.839341,-4.11597 6.731371,-6.18361 0.02715,-0.0431 0.07104,-0.0901 0.09664,-0.13281 0.228833,-0.38159 0.395129,-0.74756 0.48886,-1.09347 0.09373,-0.34591 0.115306,-0.67175 0.05374,-0.97358 -0.123129,-0.603669 -0.326908,-1.226309 -0.595828,-1.858799 -0.26892,-0.6325 -0.603147,-1.27477 -0.988055,-1.91823 C 83.90349,95.804394 83.468092,95.159485 82.997001,94.522911 82.52591,93.886339 82.019138,93.25784 81.491667,92.646023 80.964197,92.034206 80.41584,91.439105 79.861792,90.869904 79.307744,90.300706 78.748116,89.757535 78.197295,89.248815 77.095652,88.231376 76.029879,87.352462 75.119964,86.684114 74.665005,86.34994 74.051703,85.997607 73.323173,85.635599 72.594646,85.273591 71.751368,84.902113 70.835987,84.530757 69.005226,83.788046 66.88698,83.045027 64.82912,82.375851 62.771257,81.706672 60.77365,81.11156 59.182435,80.663809 c -1.591215,-0.44775 -2.775699,-0.747877 -3.206522,-0.826305 -0.215411,-0.03922 -0.424741,-0.139142 -0.625801,-0.283705 -0.201062,-0.144563 -0.39411,-0.334007 -0.577228,-0.55242 -0.366231,-0.436825 -0.692933,-0.990021 -0.965832,-1.53324 -0.272897,-0.543218 -0.492033,-1.076203 -0.642853,-1.473811 -0.150823,-0.39761 -0.233061,-0.659392 -0.233061,-0.659392 z"
       style="opacity:1;fill:#ffb4aa;fill-opacity:1;stroke:#ffd700;stroke-width:0.2;stroke-linecap:round;stroke-linejoin:round;stroke-miterlimit:4;stroke-dasharray:none;stroke-dashoffset:0;stroke-opacity:1" />
    <path
       id="path4903"
       d="m 82.612507,156.19002 c 0,0 1.111763,2.16446 2.651154,3.26736 3.793809,2.71807 14.065792,5.80173 14.065792,5.80173 l 22.147807,-1.69476 c 0,0 4.68367,-2.43284 6.55882,-3.821 1.96335,-1.45346 4.80164,-4.64952 4.80164,-4.64952 z"
       style="opacity:1;fill:#130000;fill-opacity:0.25123152;stroke:none;stroke-width:0.2;stroke-linecap:round;stroke-linejoin:round;stroke-miterlimit:4;stroke-dasharray:none;stroke-dashoffset:0;stroke-opacity:1" />
    <path
       id="path4975"
       d="m 163.62929,74.66315 c 0,0 -0.3423,-0.01751 -0.68627,0.06718 -0.17198,0.04234 -0.34448,0.110239 -0.47491,0.218591 -0.13042,0.108355 -0.21838,0.257217 -0.2222,0.46147 -0.004,0.204258 -0.0705,0.443235 -0.20826,0.703318 -0.13775,0.260083 -0.34668,0.541248 -0.6351,0.829924 -0.28843,0.288674 -0.65623,0.584851 -1.11208,0.874882 -0.45585,0.290028 -0.99968,0.57404 -1.63969,0.838192 -0.64002,0.264149 -2.07349,0.729977 -3.94291,1.362189 -1.86943,0.632214 -4.17505,1.430803 -6.55878,2.359546 -1.19186,0.46437 -2.40309,0.96112 -3.58944,1.48621 -1.18636,0.52509 -2.34761,1.07833 -3.43907,1.6552 -1.09146,0.57687 -2.11332,1.1776 -3.02049,1.79731 -0.45358,0.30985 -0.87842,0.6242 -1.26917,0.94309 -0.39075,0.31889 -0.74727,0.64213 -1.06402,0.96893 -0.63349,0.65361 -1.24735,1.38282 -1.83658,2.15853 -0.58922,0.7757 -1.1538,1.59799 -1.68878,2.43757 -0.53498,0.83959 -1.04026,1.69622 -1.51102,2.541445 -0.47076,0.84523 -0.90724,1.67904 -1.3038,2.47169 -0.79312,1.585283 -1.4275,3.007263 -1.86397,4.032823 -0.30507,0.71683 -0.3741,0.90647 -0.4718,1.15652 0.96558,1.19891 1.17047,1.46379 2.26291,2.78226 0.58719,0.5517 1.45591,1.34309 2.05259,1.90118 -0.18945,-0.18593 -0.35228,-0.33903 -0.61495,-0.59635 0.0677,-0.2598 0.11399,-0.45637 0.33279,-1.20406 0.31304,-1.06971 0.77568,-2.55658 1.37718,-4.22403 0.30075,-0.83371 0.63633,-1.71294 1.00459,-2.60759 0.36827,-0.894663 0.7698,-1.804543 1.20251,-2.701133 0.4327,-0.89659 0.89654,-1.779435 1.39061,-2.618955 0.49408,-0.83953 1.01808,-1.63609 1.57045,-2.35955 0.27618,-0.36173 0.59249,-0.72419 0.94309,-1.08675 0.35062,-0.36256 0.73575,-0.72476 1.14981,-1.08573 0.82814,-0.72193 1.77229,-1.43837 2.78845,-2.1394 1.01618,-0.70103 2.1045,-1.38667 3.221,-2.04742 1.11649,-0.66075 2.26088,-1.29646 3.38997,-1.89756 2.2582,-1.20219 4.45404,-2.266169 6.23631,-3.113502 1.78226,-0.847328 3.15127,-1.477925 3.75584,-1.815393 0.60459,-0.337469 1.11151,-0.683716 1.53015,-1.025261 0.41865,-0.341545 0.74895,-0.678881 1.00148,-0.999421 0.25253,-0.320543 0.42705,-0.624194 0.53331,-0.898652 0.10624,-0.274458 0.14402,-0.519639 0.12402,-0.722953 -0.0202,-0.203292 0.0496,-0.361291 0.1664,-0.484209 0.1168,-0.122914 0.28014,-0.210613 0.44596,-0.272851 0.33166,-0.124492 0.67387,-0.147278 0.67387,-0.147278 z"
       style="opacity:1;fill:#000000;fill-opacity:0.32512315;stroke:none;stroke-width:0.2;stroke-linecap:round;stroke-linejoin:round;stroke-miterlimit:4;stroke-dasharray:none;stroke-dashoffset:0;stroke-opacity:1" />
    <path
       id="path4992"
       d="m 82.824401,104.80549 c 0.842846,-0.7957 1.689565,-1.59492 2.408637,-2.38073 0.02715,-0.0431 0.07104,-0.0901 0.09664,-0.13281 0.228833,-0.38159 0.395129,-0.74757 0.48886,-1.09348 0.09373,-0.34591 0.115308,-0.67175 0.05374,-0.97359 C 85.749149,99.621211 85.54537,98.99857 85.27645,98.366078 85.00753,97.733578 84.673303,97.09131 84.288395,96.447849 83.903488,95.804382 83.46809,95.159476 82.996999,94.522902 82.525908,93.88633 82.019136,93.257831 81.491665,92.646014 80.964195,92.034197 80.415838,91.439096 79.86179,90.869895 79.307742,90.300697 78.748114,89.757526 78.197293,89.248806 77.09565,88.231367 76.029877,87.352453 75.119962,86.684105 74.665003,86.349931 74.051701,85.997599 73.323171,85.63559 72.594646,85.273582 71.751366,84.902105 70.835985,84.530749 69.005224,83.788037 66.886978,83.045018 64.829118,82.375842 62.771255,81.706663 60.773648,81.111551 59.182433,80.6638 57.591218,80.216051 56.406734,79.915923 55.975911,79.837495 55.7605,79.798275 55.55117,79.698354 55.35011,79.553791 55.149048,79.409228 54.956,79.219783 54.772882,79.00137 54.406651,78.564545 54.079949,78.011349 53.80705,77.468131 c -0.272897,-0.543219 -0.492033,-1.076204 -0.642853,-1.473812 -0.150823,-0.39761 -0.233061,-0.659392 -0.233061,-0.659392 0,0 0.05615,0.268455 0.166915,0.67903 0.110762,0.410572 0.275664,0.962596 0.493509,1.530138 0.217847,0.567539 0.488529,1.150707 0.80977,1.621605 0.160623,0.23545 0.334082,0.442944 0.519864,0.606681 0.18578,0.163738 0.384321,0.283838 0.594797,0.344165 0.420954,0.120648 1.569712,0.536567 3.108854,1.139468 1.539142,0.602901 3.46819,1.392489 5.449797,2.261875 1.981602,0.869387 4.016158,1.818233 5.764504,2.738335 0.874175,0.460052 1.676588,0.912865 2.365748,1.345139 0.689163,0.43227 1.264449,0.843589 1.684134,1.221112 0.839369,0.75505 1.812977,1.735286 2.808615,2.856675 0.497816,0.560692 1.000985,1.156475 1.496034,1.777669 0.495048,0.621197 0.982035,1.267587 1.446421,1.928564 0.464389,0.660977 0.90623,1.336379 1.312066,2.016413 0.405834,0.680038 0.775634,1.364917 1.095023,2.043287 0.319395,0.678367 0.588174,1.350597 0.793234,2.006597 0.20506,0.65599 0.346446,1.29554 0.409276,1.90842 0.03142,0.30644 -0.02239,0.62882 -0.149862,0.96376 -0.05904,0.15515 -0.18559,0.32134 -0.275434,0.48163 z"
       style="opacity:1;fill:#000000;fill-opacity:0.27586209;stroke:none;stroke-width:0.2;stroke-linecap:round;stroke-linejoin:round;stroke-miterlimit:4;stroke-dasharray:none;stroke-dashoffset:0;stroke-opacity:0.25615767" />
    <path
       id="path4529"
       transform="scale(0.26458333)"
       d="M 405.69336 345.66016 A 153.8487 136.07741 0 0 0 251.8457 481.73633 A 153.8487 136.07741 0 0 0 261.56836 529.09961 A 90.887528 58.137551 0 0 0 258.44531 543.9375 A 90.887528 58.137551 0 0 0 331.53711 600.94141 A 153.8487 136.07741 0 0 0 405.69336 617.81445 A 153.8487 136.07741 0 0 0 487.73828 596.79102 A 90.887528 58.137551 0 0 0 560.55859 539.875 A 90.887528 58.137551 0 0 0 553.8125 517.99609 A 153.8487 136.07741 0 0 0 559.54297 481.73633 A 153.8487 136.07741 0 0 0 405.69336 345.66016 z "
       style="opacity:1;fill:#ffe6aa;fill-opacity:1;stroke:url(#linearGradient4613);stroke-width:0.75590551;stroke-linecap:round;stroke-linejoin:round;stroke-miterlimit:4;stroke-dasharray:none;stroke-dashoffset:0;stroke-opacity:1" />
    <path
       id="path4956"
       d="m 92.41837,140.91564 c 0,0 2.075621,3.54362 4.639931,4.41174 3.574149,0.79508 6.872689,0.68038 10.040519,-2.358 l 2.20434,-1.57644 c 0,0 2.87016,1.46614 3.25048,1.5422 0,0 5.27326,1.72674 6.79156,1.47947 1.77426,-0.28896 4.30405,-1.60258 5.24845,-3.34685 1.14378,-2.11249 0.38037,-6.38941 0.38037,-6.38941 z"
       style="opacity:1;fill:#130000;fill-opacity:0.25123153;stroke:none;stroke-width:0.2;stroke-linecap:round;stroke-linejoin:round;stroke-miterlimit:4;stroke-dasharray:none;stroke-dashoffset:0;stroke-opacity:1" />
    <path
       id="path4542"
       d="m 115.41501,119.28455 c -2.83516,-1.69185 -7.10367,-3.81571 -9.10862,-3.86926 -2.08453,0.22927 -7.456944,3.95701 -9.571869,6.01547 -3.874041,3.7706 -6.825292,8.07348 -6.959634,11.83507 -0.134342,3.76159 2.352385,9.84612 6.11398,11.0552 3.761591,1.20909 7.629053,-0.54522 7.629053,-0.54522 l 4.26395,-2.535 4.77177,1.69433 c 0,0 5.44114,1.09702 8.26234,-0.30283 2.62831,-1.30414 3.99116,-4.93873 4.31732,-6.69589 0.31036,-1.67207 -1.04109,-6.75863 -2.73428,-9.20462 -1.61211,-2.28382 -4.15125,-5.75683 -6.98401,-7.44725 z"
       style="opacity:1;fill:#fc5503;fill-opacity:1;stroke:#490000;stroke-width:0.2;stroke-linecap:round;stroke-linejoin:round;stroke-miterlimit:4;stroke-dasharray:none;stroke-dashoffset:0;stroke-opacity:1" />
    <path
       id="path4544"
       d="m 93.242636,114.29328 c 0,0 4.290085,-0.13355 3.484029,-0.2679 -0.806053,-0.13434 -2.855323,-3.11138 -6.944978,-5.15177 -3.765146,-1.87848 -5.941456,-1.14378 -8.087978,-0.42531 -1.837329,0.61497 -3.331517,2.34151 -4.227748,3.73041 -0.582518,0.90274 -1.025027,3.05576 -1.025027,3.05576 0.992735,-0.30282 0.978763,0.11344 3.005252,-0.92778 0.02792,-1.41425 1.368095,-2.7821 3.13742,-3.2465 1.45562,-0.38207 3.180429,0.18802 4.883088,0.57819 2.065425,0.47331 5.775942,2.6549 5.775942,2.6549 z"
       style="opacity:1;fill:#000003;fill-opacity:1;stroke:#000000;stroke-width:0.2;stroke-linecap:round;stroke-linejoin:round;stroke-miterlimit:4;stroke-dasharray:none;stroke-dashoffset:0;stroke-opacity:1" />
    <path
       id="path4546"
       d="m 112.44475,113.21933 c 0,0 7.65753,-5.50805 11.01609,-6.17976 3.35857,-0.67171 11.50375,4.75545 11.50375,4.75545 l -1.19349,0.69618 c -0.88613,-0.23778 -1.7771,-0.43673 -2.81824,0.56558 -1.8725,-1.13751 -2.66358,-1.86463 -6.73863,-2.46196 0,0 -2.6521,0.78031 -3.84248,1.45843 -2.04026,1.16228 -5.62759,1.77762 -5.62759,1.77762 z"
       style="opacity:1;fill:#000003;fill-opacity:1;stroke:#000000;stroke-width:0.2;stroke-linecap:round;stroke-linejoin:round;stroke-miterlimit:4;stroke-dasharray:none;stroke-dashoffset:0;stroke-opacity:1" />
    <path
       id="path4954"
       d="m 95.613079,167.9946 c 0,0 0.646269,3.25076 2.129805,4.18355 1.078575,0.67817 3.184846,0.69878 4.335676,0.15213 1.92534,-1.38618 3.37194,-2.52987 4.94419,-4.33568 0.78162,-0.88427 2.6008,-2.11297 2.6008,-2.11297 l 3.18011,3.71033 c 0,0 1.20436,2.41423 2.51013,2.89045 2.29562,0.39942 4.89983,-1.53766 5.78089,-3.80323 l 1.06491,-2.73832 z"
       style="opacity:1;fill:#130000;fill-opacity:0.23137255;stroke:none;stroke-width:0.2;stroke-linecap:round;stroke-linejoin:round;stroke-miterlimit:4;stroke-dasharray:none;stroke-dashoffset:0;stroke-opacity:1" />
    <path
       id="path4550"
       d="m 110.16093,161.17963 c 0,0 4.35001,-5.37599 7.97726,-6.18204 3.62725,-0.80606 4.82548,3.55311 4.94352,5.67544 0.17365,3.12248 -1.68706,7.55362 -2.66657,8.6601 -1.00745,1.13806 -3.86975,3.31439 -6.14343,2.21756 -1.57764,-0.76106 -4.64816,-5.66906 -4.64816,-5.66906 l 0.26869,-3.89594 z"
       style="opacity:1;fill:#ff0000;fill-opacity:1;stroke:#850000;stroke-width:0.2;stroke-linecap:round;stroke-linejoin:round;stroke-miterlimit:4;stroke-dasharray:none;stroke-dashoffset:0;stroke-opacity:1" />
    <path
       id="path4552"
       d="m 106.64364,161.75841 c -0.63071,-0.83741 -6.692752,-7.04194 -9.245262,-6.77326 -2.552509,0.26869 -3.539377,4.38912 -3.539377,7.34466 0,2.95554 0.76417,7.40846 2.846065,8.73734 1.871146,1.19436 5.373704,1.07474 6.985814,-0.26869 1.61211,-1.34342 5.93267,-4.91683 5.93267,-4.91683 0.0735,0.11899 -1.90329,-2.69375 -2.97991,-4.12322 z"
       style="opacity:1;fill:#ff0000;fill-opacity:1;stroke:#7f0000;stroke-width:0.2;stroke-linecap:round;stroke-linejoin:round;stroke-miterlimit:4;stroke-dasharray:none;stroke-dashoffset:0;stroke-opacity:1" />
    <path
       id="path4582"
       d="m 106.6625,164.14804 c 0,0 -4.79091,-0.0318 -7.333047,1.11107"
       style="opacity:1;fill:#ff0000;fill-opacity:1;stroke:#920000;stroke-width:0.2;stroke-linecap:round;stroke-linejoin:round;stroke-miterlimit:4;stroke-dasharray:none;stroke-dashoffset:0;stroke-opacity:1" />
    <path
       id="path4580"
       d="m 106.34506,162.90999 c 0,0 -1.96818,-1.49201 -5.17441,-2.34911"
       style="opacity:1;fill:#ff0000;fill-opacity:1;stroke:#920000;stroke-width:0.2;stroke-linecap:round;stroke-linejoin:round;stroke-miterlimit:4;stroke-dasharray:none;stroke-dashoffset:0;stroke-opacity:1" />
    <path
       id="path4847"
       d="m 110.9831,163.69696 c 0,0 2.44867,-2.34297 4.66833,-2.6953"
       style="opacity:1;fill:none;fill-opacity:1;stroke:#7b0000;stroke-width:0.2;stroke-linecap:round;stroke-linejoin:round;stroke-miterlimit:4;stroke-dasharray:none;stroke-dashoffset:0;stroke-opacity:1" />
    <path
       id="path4849"
       d="m 110.85334,164.82344 c 0,0 3.78874,-0.34437 6.53342,0.42381"
       style="opacity:1;fill:none;fill-opacity:1;stroke:#7b0000;stroke-width:0.2;stroke-linecap:round;stroke-linejoin:round;stroke-miterlimit:4;stroke-dasharray:none;stroke-dashoffset:0;stroke-opacity:1" />
    <ellipse
       ry="4.3661342"
       rx="3.2242222"
       cy="163.53064"
       cx="108.41447"
       id="path4548"
       style="opacity:1;fill:#ff0000;fill-opacity:1;stroke:#920000;stroke-width:0.2;stroke-linecap:round;stroke-linejoin:round;stroke-miterlimit:4;stroke-dasharray:none;stroke-dashoffset:0;stroke-opacity:1" />
    <path
       id="path4562"
       d="m 98.632377,236.4026 c -1.418049,-0.21128 -3.97957,-2.12281 -3.97957,-3.06321 0,-0.9404 0.637034,-6.41464 0.637034,-6.41464 l 3.79452,-0.47152 3.687719,0.9573 c 0.3997,2.39638 1.2422,4.91927 0.63078,7.02676 -1.00881,1.15903 -3.1476,2.2071 -4.770483,1.96531 z"
       style="opacity:1;fill:#ffe2aa;fill-opacity:1;stroke:#ffce72;stroke-width:0.2;stroke-linecap:round;stroke-linejoin:round;stroke-miterlimit:4;stroke-dasharray:none;stroke-dashoffset:0;stroke-opacity:1" />
    <path
       id="path4564"
       d="m 118.95818,237.40172 c -1.96671,-0.0384 -2.87908,-0.55375 -4.14597,-2.20821 -1.23864,-1.61757 0.58895,-6.04629 0.58895,-6.04629 l 6.85861,0.17704 c 0.19386,2.23769 0.89748,3.78073 0.53024,5.87814 0.0875,0.525 -2.32516,2.22874 -3.83183,2.19932 z"
       style="opacity:1;fill:#ffe3aa;fill-opacity:1;stroke:#ffd20d;stroke-width:0.2;stroke-linecap:round;stroke-linejoin:round;stroke-miterlimit:4;stroke-dasharray:none;stroke-dashoffset:0;stroke-opacity:1" />
    <path
       id="path4931"
       transform="scale(0.26458333)"
       d="m 374.49219,855.88672 -14.3418,1.78125 c 0,0 -0.63927,5.52519 -1.26172,11.36719 10.82142,5.12145 21.39419,6.51313 31.45117,0.16796 -0.63589,-3.23281 -1.37578,-6.4954 -1.91015,-9.69921 z"
       style="opacity:1;fill:#130000;fill-opacity:0.23137255;stroke:none;stroke-width:0.75590551;stroke-linecap:round;stroke-linejoin:round;stroke-miterlimit:4;stroke-dasharray:none;stroke-dashoffset:0;stroke-opacity:1" />
    <path
       style="opacity:1;fill:#130000;fill-opacity:0.23137255;stroke:none;stroke-width:0.2;stroke-linecap:round;stroke-linejoin:round;stroke-miterlimit:4;stroke-dasharray:none;stroke-dashoffset:0;stroke-opacity:1"
       d="m 118.57214,228.36725 -3.17098,0.77997 c 0,0 -0.79276,1.15319 -0.95745,2.69889 2.86317,1.35505 5.66054,1.72327 8.32145,0.0444 -0.16824,-0.85535 -0.364,-1.71858 -0.50539,-2.56625 z"
       id="path4944" />
    <path
       id="path4556"
       transform="scale(0.26458333)"
       d="m 504.64453,717.30078 -195.49023,2.31641 c 0,0 -1.17769,34.65493 6.05859,46.17187 6.99877,9.76611 24.15955,22.95611 40.55273,23.25 -0.91959,26.52889 -3.15656,62.60294 -1.38476,69.73828 4.21675,3.77288 28.84779,10.023 37.0957,3.77344 1.981,-13.34858 -3.22913,-58.38087 0.25433,-74.00752 5.97196,-2.55692 37.79259,-3.42759 40.20198,2.5231 1.47747,18.40999 -3.71012,55.15609 -0.40748,74.31255 1.19547,6.93414 34.12297,4.00093 35.92188,3.20507 3.92618,-25.53769 1.56426,-65.64906 0.27343,-82.1289 13.27387,-2.80761 27.28584,-12.33798 33.65625,-28.66211 8.12402,-20.81783 3.26758,-40.49219 3.26758,-40.49219 z"
       style="opacity:1;fill:#15dccb;fill-opacity:1;stroke:none;stroke-width:0.75590551;stroke-linecap:round;stroke-linejoin:round;stroke-miterlimit:4;stroke-dasharray:none;stroke-dashoffset:0;stroke-opacity:1" />
    <path
       id="path4586"
       d="m 105.86888,127.16536 c 0,0 -5.10875,1.84723 -6.507678,3.96809 -0.777005,1.17799 -1.358722,3.21386 -0.571406,4.50777 0.351512,0.57769 1.757124,1.15966 2.666564,0.92059 1.06575,-0.28016 1.54854,-1.53343 1.80945,-2.53958 0.31005,-1.1956 -0.48565,-2.4185 -0.41268,-3.68239 0.0476,-0.82399 0.95234,-2.28563 0.95234,-2.28563"
       style="opacity:1;fill:#430000;fill-opacity:1;stroke:#030000;stroke-width:0.2;stroke-linecap:round;stroke-linejoin:round;stroke-miterlimit:4;stroke-dasharray:none;stroke-dashoffset:0;stroke-opacity:1" />
    <path
       id="path4588"
       d="m 109.32906,126.84791 c 0,0 4.22641,2.10061 5.42837,3.99984 0.70915,1.12054 1.22798,3.04671 0.76187,4.50776 -0.20251,0.63478 -0.35414,1.1761 -0.8571,1.36503 -0.93078,0.34963 -2.05603,-0.0697 -2.85704,-0.85712 -0.52931,-0.52034 -1.52228,-1.78796 -1.33328,-3.0475 0.12417,-0.82748 0.83114,-1.93761 1.04758,-2.76179 0.12098,-0.46067 -0.15873,-1.93644 -0.15873,-1.93644"
       style="opacity:1;fill:#440000;fill-opacity:1;stroke:#000000;stroke-width:0.2;stroke-linecap:round;stroke-linejoin:round;stroke-miterlimit:4;stroke-dasharray:none;stroke-dashoffset:0;stroke-opacity:1" />
    <ellipse
       cx="135.0872"
       cy="143.20842"
       rx="7.4223738"
       ry="4.1565289"
       id="path4617"
       style="opacity:1;fill:#ffb4aa;fill-opacity:1;stroke:#ffc800;stroke-width:0.2;stroke-linecap:round;stroke-linejoin:round;stroke-miterlimit:4;stroke-dasharray:none;stroke-dashoffset:0;stroke-opacity:1" />
    <ellipse
       style="opacity:1;fill:#ffb4aa;fill-opacity:1;stroke:#ffc800;stroke-width:0.2;stroke-linecap:round;stroke-linejoin:round;stroke-miterlimit:4;stroke-dasharray:none;stroke-dashoffset:0;stroke-opacity:1"
       id="ellipse4619"
       ry="4.1565289"
       rx="7.4223738"
       cy="144.27724"
       cx="82.596176" />
    <path
       id="path4905"
       transform="scale(0.26458333)"
       d="m 504.64453,717.30078 c 0,0 -5.68804,25.88069 -8.72851,29.18555 -13.22446,14.37441 -36.66136,23.15436 -38.81055,23.57226 -20.69915,4.02494 -43.94187,5.54964 -65.83399,4.02539 -18.06218,-1.25756 -38.47185,-1.79927 -53.75976,-11.5 -14.48955,-9.19411 -28.35742,-42.96679 -28.35742,-42.96679 0,0 -1.17769,34.65493 6.05859,46.17187 6.99877,9.76611 24.15956,22.95611 40.55273,23.25 14.2798,4.93592 29.41379,5.10978 35.96485,-0.49609 5.97196,-2.55692 36.0688,-2.2773 40.20312,2.52344 14.09556,2.82452 30.88411,-2.4929 35.78711,-4.61133 13.27387,-2.80761 27.28584,-12.33798 33.65625,-28.66211 8.12402,-20.81783 3.26758,-40.49219 3.26758,-40.49219 z"
       style="opacity:0.99999999;fill:#130000;fill-opacity:0.23137255;stroke:none;stroke-width:0.75590551;stroke-linecap:round;stroke-linejoin:round;stroke-miterlimit:4;stroke-dasharray:none;stroke-dashoffset:0;stroke-opacity:1" />
    <path
       id="path4950"
       d="m 81.312953,176.74202 1.427215,-1.48244 0.749824,-11.57087 z"
       style="opacity:1;fill:#130000;fill-opacity:0.23137255;stroke:none;stroke-width:0.2;stroke-linecap:round;stroke-linejoin:round;stroke-miterlimit:4;stroke-dasharray:none;stroke-dashoffset:0;stroke-opacity:1" />
    <path
       style="opacity:1;fill:#130000;fill-opacity:0.23137255;stroke:none;stroke-width:0.2;stroke-linecap:round;stroke-linejoin:round;stroke-miterlimit:4;stroke-dasharray:none;stroke-dashoffset:0;stroke-opacity:1"
       d="m 134.67387,176.44747 -1.42722,-1.48244 -0.74982,-11.57087 z"
       id="path4952" />
    <path
       transform="scale(0.26458333)"
       id="path4977"
       d="M 505.69531 419.25195 C 505.89809 419.43547 505.89486 419.44226 506.10352 419.63086 C 510.06134 423.20823 513.57371 426.16631 517.31836 429.41992 C 517.71096 429.37643 518.77432 429.17966 519.24414 429.12109 C 513.78024 425.19462 509.42351 422.01517 505.69531 419.25195 z "
       style="opacity:1;fill:#ffb7aa;fill-opacity:1;stroke:#ffc800;stroke-width:0.75590551;stroke-linecap:round;stroke-linejoin:round;stroke-miterlimit:4;stroke-dasharray:none;stroke-dashoffset:0;stroke-opacity:1" />
    <path
       id="path4986"
       d="m 40.56817,69.892631 c -0.01521,0.04645 -0.03001,0.08826 -0.04548,0.128675 -0.0029,0.0096 -0.0049,0.02537 -0.0078,0.03514 0.01831,-0.04825 0.03496,-0.119076 0.05323,-0.163815 z"
       style="opacity:1;fill:#ffb4aa;fill-opacity:1;stroke:#ffd700;stroke-width:0.2;stroke-linecap:round;stroke-linejoin:round;stroke-miterlimit:4;stroke-dasharray:none;stroke-dashoffset:0;stroke-opacity:1" />
    <path
       id="path4984"
       d="m 40.986749,69.205852 -0.02997,-0.03721 c -0.06234,0.07238 -0.141962,0.138414 -0.305924,0.490927 -0.02528,0.05436 -0.05103,0.137556 -0.07648,0.215489 0.05402,-0.108529 0.111033,-0.257945 0.161745,-0.343646 0.140632,-0.237614 0.188966,-0.265107 0.250632,-0.325562 z"
       style="opacity:1;fill:#ffb4aa;fill-opacity:1;stroke:#ffd700;stroke-width:0.2;stroke-linecap:round;stroke-linejoin:round;stroke-miterlimit:4;stroke-dasharray:none;stroke-dashoffset:0;stroke-opacity:1" />
  </g>
</svg>
