<?xml version="1.0" encoding="UTF-8" standalone="no"?>
<!-- Created with Inkscape (http://www.inkscape.org/) -->

<svg
   xmlns:dc="http://purl.org/dc/elements/1.1/"
   xmlns:cc="http://creativecommons.org/ns#"
   xmlns:rdf="http://www.w3.org/1999/02/22-rdf-syntax-ns#"
   xmlns:svg="http://www.w3.org/2000/svg"
   xmlns="http://www.w3.org/2000/svg"
   xmlns:sodipodi="http://sodipodi.sourceforge.net/DTD/sodipodi-0.dtd"
   xmlns:inkscape="http://www.inkscape.org/namespaces/inkscape"
   width="210mm"
   height="297mm"
   viewBox="0 0 210 297"
   version="1.1"
   id="svg5053"
   inkscape:version="0.92.4 (5da689c313, 2019-01-14)"
   sodipodi:docname="robo.svg">
  <title
     id="title5316">Robo</title>
  <defs
     id="defs5047">
    <inkscape:perspective
       sodipodi:type="inkscape:persp3d"
       inkscape:vp_x="0 : 148.5 : 1"
       inkscape:vp_y="0 : 1000 : 0"
       inkscape:vp_z="210 : 148.5 : 1"
       inkscape:persp3d-origin="105 : 99 : 1"
       id="perspective5068" />
  </defs>
  <sodipodi:namedview
     id="base"
     pagecolor="#ffffff"
     bordercolor="#666666"
     borderopacity="1.0"
     inkscape:pageopacity="0.0"
     inkscape:pageshadow="2"
     inkscape:zoom="0.99485829"
     inkscape:cx="340.00131"
     inkscape:cy="336.60723"
     inkscape:document-units="mm"
     inkscape:current-layer="layer1"
     showgrid="false"
     inkscape:window-width="1840"
     inkscape:window-height="2114"
     inkscape:window-x="-10"
     inkscape:window-y="0"
     inkscape:window-maximized="0" />
  <metadata
     id="metadata5050">
    <rdf:RDF>
      <cc:Work
         rdf:about="">
        <dc:format>image/svg+xml</dc:format>
        <dc:type
           rdf:resource="http://purl.org/dc/dcmitype/StillImage" />
        <dc:title>Robo</dc:title>
      </cc:Work>
    </rdf:RDF>
  </metadata>
  <g
     inkscape:label="Layer 1"
     inkscape:groupmode="layer"
     id="layer1">
    <rect
       style="opacity:1;fill:#e2f4e8;fill-opacity:1;stroke:#010000;stroke-width:0.69999999;stroke-linecap:round;stroke-linejoin:round;stroke-miterlimit:4;stroke-dasharray:none;stroke-dashoffset:0;stroke-opacity:1"
       id="rect5097"
       width="28.676289"
       height="35.803925"
       x="66.137802"
       y="199.20222"
       ry="1.3260685" />
    <rect
       style="opacity:1;fill:#e2f4e8;fill-opacity:1;stroke:#010000;stroke-width:0.69999999;stroke-linecap:round;stroke-linejoin:round;stroke-miterlimit:4;stroke-dasharray:none;stroke-dashoffset:0;stroke-opacity:1"
       id="rect5099"
       width="26.189907"
       height="37.95879"
       x="120.1752"
       y="197.54465"
       ry="3.9782281"
       rx="0.33152524" />
    <path
       inkscape:connector-curvature="0"
       id="path5206"
       d="m 153.54329,243.68372 -6.77252,-11.869 -26.79559,-1.03618 -6.18359,10.26762 3.53347,3.86213 z"
       style="opacity:1;fill:#ff2000;fill-opacity:1;stroke:none;stroke-width:1.02077186;stroke-linecap:round;stroke-linejoin:round;stroke-miterlimit:4;stroke-dasharray:none;stroke-dashoffset:0;stroke-opacity:1" />
    <path
       style="opacity:1;fill:#000000;fill-opacity:0.5271318;stroke:none;stroke-width:1;stroke-linecap:round;stroke-linejoin:round;stroke-miterlimit:4;stroke-dasharray:none;stroke-dashoffset:0;stroke-opacity:1"
       d="m 66.03304,211.56209 c 0.376793,0.0942 3.695736,2.75017 5.840299,3.48534 3.890478,1.33368 8.135443,1.64735 12.245782,1.50718 3.643465,-0.12425 10.738612,-2.07237 10.738612,-2.07237 l 1.130376,-9.23144 -29.107285,0 z"
       id="path5233"
       inkscape:connector-curvature="0"
       sodipodi:nodetypes="csscccc" />
    <path
       sodipodi:nodetypes="csscccc"
       inkscape:connector-curvature="0"
       id="path5235"
       d="m 120.19709,214.85903 c 0.37679,0.0942 4.70972,1.34064 6.97068,1.50718 2.7601,0.2033 7.5224,0.8197 11.58639,0.1884 3.83186,-0.59524 7.53587,-2.07237 7.53587,-2.07237 l 0,-9.23144 -25.81035,0.47099 z"
       style="opacity:1;fill:#000000;fill-opacity:0.5271318;stroke:none;stroke-width:1;stroke-linecap:round;stroke-linejoin:round;stroke-miterlimit:4;stroke-dasharray:none;stroke-dashoffset:0;stroke-opacity:1" />
    <path
       style="opacity:1;fill:#ff2000;fill-opacity:1;stroke:none;stroke-width:1;stroke-linecap:round;stroke-linejoin:round;stroke-miterlimit:4;stroke-dasharray:none;stroke-dashoffset:0;stroke-opacity:1"
       d="m 26.895931,176.56817 h 5.086709 c 0,0 -0.565189,-9.79663 5.086713,-10.26762 5.651899,-0.471 7.347468,3.01434 8.195254,9.79662 0.847786,6.78228 7.064878,0.75359 7.064878,0.75359 0,0 1.130379,-19.12226 -12.151588,-19.40486 -13.281966,-0.28259 -13.281966,19.12227 -13.281966,19.12227 z"
       id="path5200"
       inkscape:connector-curvature="0" />
    <path
       style="opacity:1;fill:#e2f4e8;fill-opacity:1;stroke:#010000;stroke-width:2.64566922;stroke-linecap:round;stroke-linejoin:round;stroke-miterlimit:4;stroke-dasharray:none;stroke-dashoffset:0;stroke-opacity:1"
       d="M 149.10547 529.23242 C 143.55226 529.23242 139.08008 533.7046 139.08008 539.25781 L 139.08008 541.76367 L 139.08008 595.64062 C 139.08008 601.19384 143.55226 605.66602 149.10547 605.66602 C 154.65868 605.66602 159.12891 601.19384 159.12891 595.64062 L 159.12891 554.29297 L 224.91016 554.29297 C 231.85167 554.29297 237.43945 548.70519 237.43945 541.76367 C 237.43945 534.82216 231.85167 529.23242 224.91016 529.23242 L 151.61133 529.23242 C 151.15714 529.23242 150.70899 529.25802 150.26758 529.30469 C 149.8857 529.26089 149.49946 529.23242 149.10547 529.23242 z "
       transform="scale(0.26458333)"
       id="rect5114" />
    <path
       style="opacity:1;fill:#2b2000;fill-opacity:0.56589146;stroke:none;stroke-width:0.39034647;stroke-linecap:round;stroke-linejoin:round;stroke-miterlimit:4;stroke-dasharray:none;stroke-dashoffset:0;stroke-opacity:0.81007756"
       d="m 59.344959,144.77546 -19.310661,0.1884 2.068559,1.69282 17.430498,-0.087 z"
       id="path5282"
       inkscape:connector-curvature="0"
       sodipodi:nodetypes="ccccc" />
    <rect
       style="opacity:1;fill:#e2f4e8;fill-opacity:1;stroke:#010000;stroke-width:1;stroke-linecap:round;stroke-linejoin:round;stroke-miterlimit:4;stroke-dasharray:none;stroke-dashoffset:0;stroke-opacity:1"
       id="rect5155"
       width="3.5795372"
       height="30.520264"
       x="103.61818"
       y="36.070572"
       rx="6.9111814"
       ry="6.0706" />
    <path
       style="opacity:1;fill:#e2f4e8;fill-opacity:1;stroke:#010000;stroke-width:1;stroke-linecap:round;stroke-linejoin:round;stroke-miterlimit:4;stroke-dasharray:none;stroke-dashoffset:0;stroke-opacity:1"
       d="m 106.41723,59.303778 c -26.813322,0 -48.399599,21.847263 -48.399599,48.984772 v 15.09818 c 0,1.35292 0.05595,2.692 0.161225,4.01656 v 65.26962 c 0,10.78146 8.57582,19.46096 19.228484,19.46096 h 58.01978 c 10.65267,0 19.22849,-8.6795 19.22849,-19.46096 v -65.26962 c 0.10528,-1.32456 0.16123,-2.66364 0.16123,-4.01656 v -15.09818 c 0,-27.137509 -21.58628,-48.984772 -48.39961,-48.984772 z"
       id="rect5101"
       inkscape:connector-curvature="0" />
    <path
       inkscape:connector-curvature="0"
       id="path5202"
       d="m 161.73856,174.82474 h 5.08671 c 0,0 -0.56519,-9.79663 5.08671,-10.26762 5.6519,-0.471 7.34747,3.01434 8.19526,9.79662 0.84778,6.78228 7.06488,0.75359 7.06488,0.75359 0,0 1.13037,-19.12226 -12.15159,-19.40486 -13.28197,-0.28259 -13.28197,19.12227 -13.28197,19.12227 z"
       style="opacity:1;fill:#ff2000;fill-opacity:1;stroke:none;stroke-width:1;stroke-linecap:round;stroke-linejoin:round;stroke-miterlimit:4;stroke-dasharray:none;stroke-dashoffset:0;stroke-opacity:1" />
    <path
       style="opacity:1;fill:#e2f4e8;fill-opacity:1;stroke:#010000;stroke-width:2.64566922;stroke-linecap:round;stroke-linejoin:round;stroke-miterlimit:4;stroke-dasharray:none;stroke-dashoffset:0;stroke-opacity:1"
       d="m 578.87695,525.47461 c -6.94151,0 -10.03711,5.94381 -10.03711,12.88533 0,6.94151 3.0956,12.17326 10.03711,12.17326 h 65.78125 v 41.34961 c 0,5.55321 4.47023,10.02344 10.02344,10.02344 5.55321,0 10.02539,-4.47023 10.02539,-10.02344 v -53.8789 -2.50586 c 0,-5.55321 -4.47218,-10.02344 -10.02539,-10.02344 -0.39607,0 -0.78414,0.028 -1.16797,0.0723 -0.43954,-0.0463 -0.88569,-0.0723 -1.33789,-0.0723 z"
       transform="scale(0.26458333)"
       id="rect5106"
       inkscape:connector-curvature="0"
       sodipodi:nodetypes="ssscssscsscss" />
    <rect
       rx="12.200986"
       ry="3.7986145"
       y="104.09081"
       x="63.806042"
       height="13.532624"
       width="84.522766"
       id="rect5135"
       style="opacity:1;fill:#000000;fill-opacity:1;stroke:#010000;stroke-width:0.86526197;stroke-linecap:round;stroke-linejoin:round;stroke-miterlimit:4;stroke-dasharray:none;stroke-dashoffset:0;stroke-opacity:1" />
    <rect
       style="opacity:1;fill:#ffff89;fill-opacity:1;stroke:#010000;stroke-width:0.59033382;stroke-linecap:round;stroke-linejoin:round;stroke-miterlimit:4;stroke-dasharray:none;stroke-dashoffset:0;stroke-opacity:1"
       id="rect5130"
       width="79.31118"
       height="6.7130728"
       x="66.595863"
       y="107.49404"
       ry="1.8843628"
       rx="11.448686" />
    <path
       style="opacity:1;fill:#ffff00;fill-opacity:0.78682173;stroke:#010000;stroke-width:0.69999999;stroke-linecap:round;stroke-linejoin:round;stroke-miterlimit:4;stroke-dasharray:none;stroke-dashoffset:0;stroke-opacity:1"
       d="m 90.929513,96.763235 c -4.01821,-0.04 -8.66537,-4.56412 -8.4537,-8.45371 0.29581,-5.43577 3.23055,-7.94843 7.79067,-8.95097 5.76296,0.93875 8.02749,4.10377 8.95098,8.12218 -0.84507,6.93891 -4.96635,8.45607 -8.28795,9.2825 z"
       id="path5145"
       inkscape:connector-curvature="0"
       sodipodi:nodetypes="csccc" />
    <path
       sodipodi:nodetypes="sssss"
       inkscape:connector-curvature="0"
       id="path5139"
       d="m 90.929513,96.763235 c -5.239228,0.336688 -8.848503,-4.372384 -8.995485,-8.265313 -0.166112,-4.399588 3.118117,-9.120037 8.312125,-9.327764 5.84149,-0.233622 9.094283,3.427562 9.22541,8.12218 0.161068,5.766572 -3.607465,9.153787 -8.54205,9.470897 z"
       style="opacity:1;fill:none;fill-opacity:0.13565895;stroke:#010000;stroke-width:3.35020614;stroke-linecap:round;stroke-linejoin:round;stroke-miterlimit:4;stroke-dasharray:none;stroke-dashoffset:0;stroke-opacity:1" />
    <path
       sodipodi:nodetypes="csccc"
       inkscape:connector-curvature="0"
       id="path5143"
       d="m 122.48596,96.292243 c -4.01821,-0.04 -8.66537,-4.56412 -8.4537,-8.45371 0.29581,-5.43577 3.23055,-7.94843 7.79067,-8.95097 5.76296,0.93875 8.02749,4.10377 8.95098,8.12218 -0.84507,6.93891 -4.96635,8.45607 -8.28795,9.2825 z"
       style="opacity:1;fill:#ffff00;fill-opacity:0.78682172;stroke:#010000;stroke-width:0.69999999;stroke-linecap:round;stroke-linejoin:round;stroke-miterlimit:4;stroke-dasharray:none;stroke-dashoffset:0;stroke-opacity:1" />
    <path
       style="opacity:1;fill:none;fill-opacity:0.13565895;stroke:#010000;stroke-width:3.35020614;stroke-linecap:round;stroke-linejoin:round;stroke-miterlimit:4;stroke-dasharray:none;stroke-dashoffset:0;stroke-opacity:1"
       d="m 122.48596,96.292243 c -5.23923,0.336688 -8.8485,-4.372384 -8.99549,-8.265313 -0.16611,-4.399588 3.11812,-9.120037 8.31213,-9.327764 5.84149,-0.233622 9.09428,3.427562 9.22541,8.12218 0.16107,5.766572 -3.60747,9.153787 -8.54205,9.470897 z"
       id="path5141"
       inkscape:connector-curvature="0"
       sodipodi:nodetypes="sssss" />
    <path
       style="opacity:1;fill:#160000;fill-opacity:0.82945734;stroke:none;stroke-width:1;stroke-linecap:round;stroke-linejoin:round;stroke-miterlimit:4;stroke-dasharray:none;stroke-dashoffset:0;stroke-opacity:1"
       d="m 140.36866,160.85557 c 5.19401,-0.20772 8.47826,-4.928 8.31215,-9.32759 -0.0794,-2.10309 -1.19405,-4.41933 -3.0055,-6.07457 0.25062,0.39357 0.48738,0.79487 0.67335,1.20975 0.22045,0.49183 0.39429,0.99381 0.51728,1.49448 0.12299,0.50067 0.19556,0.9996 0.21394,1.48621 0.0208,0.54995 -0.0126,1.10518 -0.0966,1.65572 -0.0841,0.55053 -0.2192,1.0966 -0.40204,1.62884 -0.18285,0.53224 -0.41323,1.05058 -0.68885,1.54564 -0.27563,0.49507 -0.59622,0.96711 -0.9586,1.40612 -0.36239,0.439 -0.76662,0.84516 -1.20975,1.20923 -0.44312,0.36406 -0.92547,0.68576 -1.44332,0.95601 -0.51785,0.27025 -1.07122,0.48892 -1.65778,0.64647 -0.58656,0.15755 -1.20593,0.25412 -1.85518,0.28009 -0.73019,0.0292 -1.42036,-0.002 -2.06861,-0.0894 -0.64825,-0.0869 -1.25478,-0.2293 -1.81901,-0.42117 -0.56423,-0.19186 -1.08612,-0.43318 -1.56425,-0.71881 -0.35081,-0.20958 -0.652,-0.46708 -0.95549,-0.72192 1.44505,2.42316 4.14659,3.98935 8.00829,3.8349 z"
       id="path5220"
       inkscape:connector-curvature="0" />
    <path
       sodipodi:nodetypes="sssss"
       inkscape:connector-curvature="0"
       id="path5147"
       d="m 138.78228,159.87612 c -5.23923,0.33669 -8.8485,-4.37238 -8.99549,-8.26531 -0.16611,-4.39959 3.11812,-9.12004 8.31213,-9.32776 5.84149,-0.23363 9.09428,3.42756 9.22541,8.12218 0.16107,5.76657 -3.60747,9.15378 -8.54205,9.47089 z"
       style="opacity:1;fill:#0000ff;fill-opacity:1;stroke:none;stroke-width:1;stroke-linecap:round;stroke-linejoin:round;stroke-miterlimit:4;stroke-dasharray:none;stroke-dashoffset:0;stroke-opacity:1" />
    <path
       inkscape:connector-curvature="0"
       id="path5218"
       d="m 109.5658,160.76137 c 5.19401,-0.20772 8.47826,-4.928 8.31215,-9.32759 -0.0794,-2.10309 -1.19405,-4.41933 -3.0055,-6.07457 0.25062,0.39357 0.48738,0.79487 0.67335,1.20975 0.22045,0.49183 0.39429,0.99381 0.51728,1.49448 0.12299,0.50067 0.19556,0.9996 0.21394,1.48621 0.0208,0.54995 -0.0126,1.10518 -0.0966,1.65572 -0.0841,0.55053 -0.2192,1.0966 -0.40204,1.62884 -0.18285,0.53224 -0.41323,1.05058 -0.68885,1.54564 -0.27563,0.49507 -0.59622,0.96711 -0.9586,1.40612 -0.36239,0.439 -0.76662,0.84516 -1.20975,1.20923 -0.44312,0.36406 -0.92547,0.68576 -1.44332,0.95601 -0.51785,0.27025 -1.07122,0.48892 -1.65778,0.64647 -0.58656,0.15755 -1.20593,0.25412 -1.85518,0.28009 -0.73019,0.0292 -1.42036,-0.002 -2.06861,-0.0894 -0.64825,-0.0869 -1.25478,-0.2293 -1.81901,-0.42117 -0.56423,-0.19186 -1.08612,-0.43318 -1.56425,-0.71881 -0.35081,-0.20958 -0.652,-0.46708 -0.95549,-0.72192 1.44505,2.42316 4.14659,3.98935 8.00829,3.8349 z"
       style="opacity:1;fill:#160000;fill-opacity:0.7635659;stroke:none;stroke-width:1;stroke-linecap:round;stroke-linejoin:round;stroke-miterlimit:4;stroke-dasharray:none;stroke-dashoffset:0;stroke-opacity:1" />
    <path
       style="opacity:1;fill:#ffff00;fill-opacity:1;stroke:none;stroke-width:1;stroke-linecap:round;stroke-linejoin:round;stroke-miterlimit:4;stroke-dasharray:none;stroke-dashoffset:0;stroke-opacity:1"
       d="m 108.16782,159.87612 c -5.23923,0.33669 -8.848503,-4.37238 -8.995493,-8.26531 -0.16611,-4.39959 3.118123,-9.12004 8.312133,-9.32776 5.84149,-0.23363 9.09428,3.42756 9.22541,8.12218 0.16107,5.76657 -3.60747,9.15378 -8.54205,9.47089 z"
       id="path5149"
       inkscape:connector-curvature="0"
       sodipodi:nodetypes="sssss" />
    <path
       style="opacity:1;fill:#160000;fill-opacity:0.81782943;stroke:none;stroke-width:1;stroke-linecap:round;stroke-linejoin:round;stroke-miterlimit:4;stroke-dasharray:none;stroke-dashoffset:0;stroke-opacity:1"
       d="m 76.313784,161.94993 c 5.194008,-0.20772 8.478263,-4.928 8.312152,-9.32759 -0.07941,-2.10309 -1.194049,-4.41933 -3.0055,-6.07457 0.250616,0.39357 0.487381,0.79487 0.673344,1.20975 0.22045,0.49183 0.39429,0.99381 0.517281,1.49448 0.122992,0.50067 0.195567,0.9996 0.21394,1.48621 0.02076,0.54995 -0.01258,1.10518 -0.09663,1.65572 -0.08405,0.55053 -0.219197,1.0966 -0.402042,1.62884 -0.182849,0.53224 -0.413224,1.05058 -0.688848,1.54564 -0.275625,0.49507 -0.596213,0.96711 -0.958599,1.40612 -0.362387,0.439 -0.766614,0.84516 -1.209744,1.20923 -0.443129,0.36406 -0.92547,0.68576 -1.443323,0.95601 -0.517856,0.27025 -1.071219,0.48892 -1.657781,0.64647 -0.58656,0.15755 -1.205932,0.25412 -1.855182,0.28009 -0.730186,0.0292 -1.42036,-0.002 -2.068608,-0.0894 -0.64825,-0.0869 -1.254783,-0.2293 -1.81901,-0.42117 -0.564229,-0.19186 -1.08612,-0.43318 -1.564246,-0.71881 -0.350816,-0.20958 -0.652007,-0.46708 -0.955498,-0.72192 1.445049,2.42316 4.146593,3.98935 8.008298,3.8349 z"
       id="path5208"
       inkscape:connector-curvature="0" />
    <path
       sodipodi:nodetypes="sssss"
       inkscape:connector-curvature="0"
       id="path5151"
       d="m 74.915804,161.1949 c -5.23923,0.33669 -8.848503,-4.37238 -8.995493,-8.26531 -0.16611,-4.39959 3.118123,-9.12004 8.312133,-9.32776 5.84149,-0.23363 9.09428,3.42756 9.22541,8.12218 0.16107,5.76657 -3.60747,9.15378 -8.54205,9.47089 z"
       style="opacity:1;fill:#ff0000;fill-opacity:1;stroke:none;stroke-width:1;stroke-linecap:round;stroke-linejoin:round;stroke-miterlimit:4;stroke-dasharray:none;stroke-dashoffset:0;stroke-opacity:1" />
    <path
       style="opacity:1;fill:#590000;fill-opacity:1;stroke:none;stroke-width:1.10585415;stroke-linecap:round;stroke-linejoin:round;stroke-miterlimit:4;stroke-dasharray:none;stroke-dashoffset:0;stroke-opacity:1"
       d="m 59.68421,136.59221 c -3.828796,0 -6.911205,-2.70732 -6.911205,-6.07043 v -0.53589 c 0,-0.0896 0.02564,-0.17281 0.02997,-0.26148 0.01598,0.32734 0.03784,0.65368 0.110072,0.96531 0.09176,0.3959 0.227126,0.77764 0.401527,1.14102 0.174397,0.36338 0.387707,0.70809 0.635619,1.03095 0.247912,0.32285 0.530542,0.62382 0.842843,0.89813 0.312298,0.27432 0.654079,0.52225 1.021641,0.74001 0.367564,0.21776 0.760907,0.40492 1.174607,0.5581 0.4137,0.15319 0.847916,0.27235 1.298628,0.35295 0.450712,0.0806 0.917697,0.12299 1.396296,0.12299 h 94.461932 c 0.4786,0 0.94559,-0.0424 1.3963,-0.12299 0.45071,-0.0806 0.88493,-0.19976 1.29863,-0.35295 0.4137,-0.15318 0.80653,-0.34034 1.17409,-0.5581 0.36756,-0.21776 0.70986,-0.46569 1.02216,-0.74001 0.3123,-0.27431 0.59493,-0.57528 0.84284,-0.89813 0.24791,-0.32286 0.46122,-0.66757 0.63562,-1.03095 0.1744,-0.36338 0.30977,-0.74512 0.40153,-1.14102 0.0722,-0.31163 0.0941,-0.63797 0.11007,-0.96531 0.004,0.0887 0.03,0.17184 0.03,0.26148 v 0.53589 c 0,3.36311 -3.08241,6.07043 -6.91121,6.07043 z"
       id="rect5222"
       inkscape:connector-curvature="0" />
    <rect
       style="opacity:1;fill:#ff0000;fill-opacity:1;stroke:none;stroke-width:1.10585415;stroke-linecap:round;stroke-linejoin:round;stroke-miterlimit:4;stroke-dasharray:none;stroke-dashoffset:0;stroke-opacity:1"
       id="rect5153"
       width="108.28416"
       height="12.67675"
       x="52.773045"
       y="122.84531"
       rx="6.9111881"
       ry="6.0705948" />
    <path
       style="opacity:1;fill:#ff0000;fill-opacity:1;stroke:none;stroke-width:1;stroke-linecap:round;stroke-linejoin:round;stroke-miterlimit:4;stroke-dasharray:none;stroke-dashoffset:0;stroke-opacity:1"
       d="m 105.90706,41.657198 c -5.23923,0.33669 -8.848503,-4.37238 -8.995493,-8.26531 -0.16611,-4.39959 3.118123,-9.12004 8.312133,-9.32776 5.84149,-0.23363 9.09428,3.42756 9.22541,8.12218 0.16107,5.76657 -3.60747,9.15378 -8.54205,9.47089 z"
       id="path5157"
       inkscape:connector-curvature="0"
       sodipodi:nodetypes="sssss" />
    <path
       style="opacity:1;fill:#4d2000;fill-opacity:0.85271319;stroke:none;stroke-width:0.99662358;stroke-linecap:round;stroke-linejoin:round;stroke-miterlimit:4;stroke-dasharray:none;stroke-dashoffset:0;stroke-opacity:1"
       d="m 58.11954,168.05632 c 0,0 -0.196787,18.15968 -0.09356,22.98439 7.269212,6.06962 29.452016,9.23144 50.24415,9.23144 20.67747,0 39.80806,-5.4239 46.68745,-10.55021 0.47643,-8.05422 -0.0936,-21.85402 -0.0936,-21.85402 0,0 -29.37885,5.2751 -48.09152,5.2751 -18.712676,0 -38.828788,-1.03618 -48.652937,-5.0867 z"
       id="path5280"
       inkscape:connector-curvature="0"
       sodipodi:nodetypes="cccccscc" />
    <path
       style="opacity:1;fill:#ff2000;fill-opacity:0.85271317;stroke:none;stroke-width:1;stroke-linecap:round;stroke-linejoin:round;stroke-miterlimit:4;stroke-dasharray:none;stroke-dashoffset:0;stroke-opacity:1"
       d="m 57.743585,167.19467 c 0,0 -0.198123,18.15968 -0.0942,22.98439 7.31855,6.06962 29.557076,7.72427 50.490313,7.72427 20.81783,0 40.17309,-3.91673 47.09917,-9.04304 0.47966,-8.05422 -0.0942,-21.85402 -0.0942,-21.85402 0,0 -29.57827,5.2751 -48.41794,5.2751 -18.839673,0 -39.092318,-1.03618 -48.983145,-5.0867 z"
       id="path5163"
       inkscape:connector-curvature="0"
       sodipodi:nodetypes="cccccsc" />
    <path
       style="opacity:1;fill:#ffff89;fill-opacity:1;stroke:#010000;stroke-width:1;stroke-linecap:round;stroke-linejoin:round;stroke-miterlimit:4;stroke-dasharray:none;stroke-dashoffset:0;stroke-opacity:1"
       d="m 71.873337,106.24835 -2e-6,9.70243"
       id="path5169"
       inkscape:connector-curvature="0"
       sodipodi:nodetypes="cc" />
    <path
       style="opacity:1;fill:#ffff89;fill-opacity:1;stroke:#010000;stroke-width:1;stroke-linecap:round;stroke-linejoin:round;stroke-miterlimit:4;stroke-dasharray:none;stroke-dashoffset:0;stroke-opacity:1"
       d="m 75.170279,104.92956 0.188397,11.2096"
       id="path5171"
       inkscape:connector-curvature="0"
       sodipodi:nodetypes="cc" />
    <path
       style="opacity:1;fill:#ffff89;fill-opacity:1;stroke:#010000;stroke-width:1;stroke-linecap:round;stroke-linejoin:round;stroke-miterlimit:4;stroke-dasharray:none;stroke-dashoffset:0;stroke-opacity:1"
       d="m 79.220809,105.21215 0.188396,11.02121"
       id="path5173"
       inkscape:connector-curvature="0"
       sodipodi:nodetypes="cc" />
    <path
       style="opacity:1;fill:#ffff89;fill-opacity:1;stroke:#010000;stroke-width:1;stroke-linecap:round;stroke-linejoin:round;stroke-miterlimit:4;stroke-dasharray:none;stroke-dashoffset:0;stroke-opacity:1"
       d="m 84.590114,105.49475 -10e-7,11.0212"
       id="path5175"
       inkscape:connector-curvature="0"
       sodipodi:nodetypes="cc" />
    <path
       style="opacity:1;fill:#ffff89;fill-opacity:1;stroke:#010000;stroke-width:1;stroke-linecap:round;stroke-linejoin:round;stroke-miterlimit:4;stroke-dasharray:none;stroke-dashoffset:0;stroke-opacity:1"
       d="m 90.713008,104.64697 -0.0942,11.86899"
       id="path5177"
       inkscape:connector-curvature="0" />
    <path
       style="opacity:1;fill:#ffff89;fill-opacity:1;stroke:#010000;stroke-width:1;stroke-linecap:round;stroke-linejoin:round;stroke-miterlimit:4;stroke-dasharray:none;stroke-dashoffset:0;stroke-opacity:1"
       d="m 97.21269,104.83536 0.1884,11.6806"
       id="path5179"
       inkscape:connector-curvature="0" />
    <path
       style="opacity:1;fill:#ffff89;fill-opacity:1;stroke:#010000;stroke-width:1;stroke-linecap:round;stroke-linejoin:round;stroke-miterlimit:4;stroke-dasharray:none;stroke-dashoffset:0;stroke-opacity:1"
       d="m 106.34993,104.83537 0.0942,11.68059"
       id="path5181"
       inkscape:connector-curvature="0" />
    <path
       style="opacity:1;fill:#ffff89;fill-opacity:1;stroke:#010000;stroke-width:1;stroke-linecap:round;stroke-linejoin:round;stroke-miterlimit:4;stroke-dasharray:none;stroke-dashoffset:0;stroke-opacity:1"
       d="m 115.48718,105.49476 -0.0942,10.55021"
       id="path5183"
       inkscape:connector-curvature="0"
       sodipodi:nodetypes="cc" />
    <path
       style="opacity:1;fill:#ffff89;fill-opacity:1;stroke:#010000;stroke-width:1;stroke-linecap:round;stroke-linejoin:round;stroke-miterlimit:4;stroke-dasharray:none;stroke-dashoffset:0;stroke-opacity:1"
       d="m 123.39984,105.40056 v 10.92701"
       id="path5185"
       inkscape:connector-curvature="0"
       sodipodi:nodetypes="cc" />
    <path
       style="opacity:1;fill:#ffff89;fill-opacity:1;stroke:#010000;stroke-width:1;stroke-linecap:round;stroke-linejoin:round;stroke-miterlimit:4;stroke-dasharray:none;stroke-dashoffset:0;stroke-opacity:1"
       d="m 129.42853,105.30636 0.1884,10.64441"
       id="path5187"
       inkscape:connector-curvature="0" />
    <path
       style="opacity:1;fill:#ffff89;fill-opacity:1;stroke:#010000;stroke-width:1;stroke-linecap:round;stroke-linejoin:round;stroke-miterlimit:4;stroke-dasharray:none;stroke-dashoffset:0;stroke-opacity:1"
       d="m 134.23264,105.02376 v 10.83281"
       id="path5189"
       inkscape:connector-curvature="0" />
    <path
       style="opacity:1;fill:#ffff89;fill-opacity:1;stroke:#010000;stroke-width:1;stroke-linecap:round;stroke-linejoin:round;stroke-miterlimit:4;stroke-dasharray:none;stroke-dashoffset:0;stroke-opacity:1"
       d="m 138.65996,104.83536 -0.0942,11.02121"
       id="path5191"
       inkscape:connector-curvature="0" />
    <path
       style="opacity:1;fill:#ffff89;fill-opacity:1;stroke:#010000;stroke-width:1;stroke-linecap:round;stroke-linejoin:round;stroke-miterlimit:4;stroke-dasharray:none;stroke-dashoffset:0;stroke-opacity:1"
       d="m 141.95691,105.87155 -0.0942,9.13724"
       id="path5193"
       inkscape:connector-curvature="0" />
    <path
       style="opacity:1;fill:#ffff89;fill-opacity:1;stroke:#010000;stroke-width:1;stroke-linecap:round;stroke-linejoin:round;stroke-miterlimit:4;stroke-dasharray:none;stroke-dashoffset:0;stroke-opacity:1"
       d="m 144.02927,106.62513 -0.0942,7.81847"
       id="path5195"
       inkscape:connector-curvature="0" />
    <path
       style="opacity:1;fill:#ffff89;fill-opacity:1;stroke:#010000;stroke-width:1;stroke-linecap:round;stroke-linejoin:round;stroke-miterlimit:4;stroke-dasharray:none;stroke-dashoffset:0;stroke-opacity:1"
       d="m 69.047386,106.24834 0.188396,8.19525"
       id="path5197"
       inkscape:connector-curvature="0"
       sodipodi:nodetypes="cc" />
    <path
       style="opacity:1;fill:#ff2000;fill-opacity:1;stroke:none;stroke-width:1.05057299;stroke-linecap:round;stroke-linejoin:round;stroke-miterlimit:4;stroke-dasharray:none;stroke-dashoffset:0;stroke-opacity:1"
       d="m 59.815949,244.71991 7.173728,-11.869 28.383006,-1.03618 6.549927,10.26762 -3.742813,3.86213 z"
       id="path5204"
       inkscape:connector-curvature="0" />
    <path
       style="opacity:1;fill:none;fill-opacity:0.5271318;stroke:#010000;stroke-width:0.40000001;stroke-linecap:round;stroke-linejoin:round;stroke-miterlimit:4;stroke-dasharray:none;stroke-dashoffset:0;stroke-opacity:0.81007756"
       d="m 66.033041,217.59078 c 0,0 11.774791,7.15907 28.918891,2.07236"
       id="path5237"
       inkscape:connector-curvature="0" />
    <path
       inkscape:connector-curvature="0"
       id="path5239"
       d="m 65.844644,225.50344 c 0,0 11.774791,7.15907 28.918891,2.07236"
       style="opacity:1;fill:none;fill-opacity:0.5271318;stroke:#010000;stroke-width:0.40000001;stroke-linecap:round;stroke-linejoin:round;stroke-miterlimit:4;stroke-dasharray:none;stroke-dashoffset:0;stroke-opacity:0.81007756" />
    <path
       inkscape:connector-curvature="0"
       id="path5243"
       d="m 146.19583,217.87338 c 0,0 -10.61538,6.501 -26.0714,1.88186"
       style="opacity:1;fill:none;fill-opacity:0.5271318;stroke:#010000;stroke-width:0.36192062;stroke-linecap:round;stroke-linejoin:round;stroke-miterlimit:4;stroke-dasharray:none;stroke-dashoffset:0;stroke-opacity:0.81007756" />
    <path
       style="opacity:1;fill:none;fill-opacity:0.5271318;stroke:#010000;stroke-width:0.36192062;stroke-linecap:round;stroke-linejoin:round;stroke-miterlimit:4;stroke-dasharray:none;stroke-dashoffset:0;stroke-opacity:0.81007756"
       d="m 146.44773,224.83462 c 0,0 -10.61538,6.501 -26.0714,1.88186"
       id="path5245"
       inkscape:connector-curvature="0" />
    <path
       style="opacity:1;fill:none;fill-opacity:0.5271318;stroke:#010000;stroke-width:0.40000001;stroke-linecap:round;stroke-linejoin:round;stroke-miterlimit:4;stroke-dasharray:none;stroke-dashoffset:0;stroke-opacity:0.81007756"
       d="m 170.5932,154.1011 c 2.19917,0.9444 3.72315,0.53843 5.18091,0"
       id="path5247"
       inkscape:connector-curvature="0"
       sodipodi:nodetypes="cc" />
    <path
       sodipodi:nodetypes="cc"
       inkscape:connector-curvature="0"
       id="path5249"
       d="m 170.5932,149.48538 c 2.19917,0.9444 3.72315,0.53843 5.18091,0"
       style="opacity:1;fill:none;fill-opacity:0.5271318;stroke:#010000;stroke-width:0.40000001;stroke-linecap:round;stroke-linejoin:round;stroke-miterlimit:4;stroke-dasharray:none;stroke-dashoffset:0;stroke-opacity:0.81007756" />
    <path
       style="opacity:1;fill:none;fill-opacity:0.5271318;stroke:#010000;stroke-width:0.40000001;stroke-linecap:round;stroke-linejoin:round;stroke-miterlimit:4;stroke-dasharray:none;stroke-dashoffset:0;stroke-opacity:0.81007756"
       d="m 170.6893,145.66211 c 2.19917,0.9444 3.72315,0.53843 5.18091,0"
       id="path5251"
       inkscape:connector-curvature="0"
       sodipodi:nodetypes="cc" />
    <path
       sodipodi:nodetypes="cc"
       inkscape:connector-curvature="0"
       id="path5253"
       d="m 170.56581,139.54688 c -0.9444,2.59568 -0.53843,4.39443 0,6.11503"
       style="opacity:1;fill:none;fill-opacity:0.5271318;stroke:#010000;stroke-width:0.43456665;stroke-linecap:round;stroke-linejoin:round;stroke-miterlimit:4;stroke-dasharray:none;stroke-dashoffset:0;stroke-opacity:0.81007756" />
    <path
       style="opacity:1;fill:none;fill-opacity:0.5271318;stroke:#010000;stroke-width:0.43456665;stroke-linecap:round;stroke-linejoin:round;stroke-miterlimit:4;stroke-dasharray:none;stroke-dashoffset:0;stroke-opacity:0.81007756"
       d="m 163.97193,139.17009 c -0.9444,2.59568 -0.53843,4.39443 0,6.11503"
       id="path5256"
       inkscape:connector-curvature="0"
       sodipodi:nodetypes="cc" />
    <path
       sodipodi:nodetypes="cc"
       inkscape:connector-curvature="0"
       id="path5258"
       d="m 157.47224,139.07589 c -0.9444,2.59568 -0.53843,4.39443 0,6.11503"
       style="opacity:1;fill:none;fill-opacity:0.5271318;stroke:#010000;stroke-width:0.43456665;stroke-linecap:round;stroke-linejoin:round;stroke-miterlimit:4;stroke-dasharray:none;stroke-dashoffset:0;stroke-opacity:0.81007756" />
    <path
       style="opacity:1;fill:none;fill-opacity:0.5271318;stroke:#010000;stroke-width:0.43456665;stroke-linecap:round;stroke-linejoin:round;stroke-miterlimit:4;stroke-dasharray:none;stroke-dashoffset:0;stroke-opacity:0.81007756"
       d="m 53.621358,140.01787 c -0.9444,2.59568 -0.53843,4.39443 0,6.11503"
       id="path5260"
       inkscape:connector-curvature="0"
       sodipodi:nodetypes="cc" />
    <path
       sodipodi:nodetypes="cc"
       inkscape:connector-curvature="0"
       id="path5262"
       d="m 48.216029,140.35864 c -0.9444,2.59568 -0.53843,4.39443 0,6.11503"
       style="opacity:1;fill:none;fill-opacity:0.5271318;stroke:#010000;stroke-width:0.43456665;stroke-linecap:round;stroke-linejoin:round;stroke-miterlimit:4;stroke-dasharray:none;stroke-dashoffset:0;stroke-opacity:0.81007756" />
    <path
       style="opacity:1;fill:none;fill-opacity:0.5271318;stroke:#010000;stroke-width:0.43456665;stroke-linecap:round;stroke-linejoin:round;stroke-miterlimit:4;stroke-dasharray:none;stroke-dashoffset:0;stroke-opacity:0.81007756"
       d="m 41.976786,140.30046 c -0.9444,2.59568 -0.53843,4.39443 0,6.11503"
       id="path5264"
       inkscape:connector-curvature="0"
       sodipodi:nodetypes="cc" />
    <path
       sodipodi:nodetypes="cc"
       inkscape:connector-curvature="0"
       id="path5267"
       d="m 36.655913,146.65668 c 2.312094,0.9444 3.914325,0.53843 5.446944,0"
       style="opacity:1;fill:none;fill-opacity:0.5271318;stroke:#010000;stroke-width:0.41014135;stroke-linecap:round;stroke-linejoin:round;stroke-miterlimit:4;stroke-dasharray:none;stroke-dashoffset:0;stroke-opacity:0.81007756" />
    <path
       style="opacity:1;fill:none;fill-opacity:0.5271318;stroke:#010000;stroke-width:0.38907582;stroke-linecap:round;stroke-linejoin:round;stroke-miterlimit:4;stroke-dasharray:none;stroke-dashoffset:0;stroke-opacity:0.81007756"
       d="m 36.9545,150.70721 c 2.080687,0.9444 3.522559,0.53843 4.901785,0"
       id="path5269"
       inkscape:connector-curvature="0"
       sodipodi:nodetypes="cc" />
    <path
       sodipodi:nodetypes="cc"
       inkscape:connector-curvature="0"
       id="path5271"
       d="m 36.931786,154.7512 c 2.117878,0.96641 3.585522,0.55098 4.9894,0"
       style="opacity:1;fill:none;fill-opacity:0.5271318;stroke:#010000;stroke-width:0.39708528;stroke-linecap:round;stroke-linejoin:round;stroke-miterlimit:4;stroke-dasharray:none;stroke-dashoffset:0;stroke-opacity:0.81007756" />
    <path
       sodipodi:nodetypes="ccccc"
       inkscape:connector-curvature="0"
       id="path5284"
       d="m 150.80964,143.78089 21.94822,0.1884 -2.06856,1.69282 -17.4305,-0.087 c -1.68872,0.44354 -1.71184,-0.81065 -2.44916,-1.79422 z"
       style="opacity:1;fill:#2b2000;fill-opacity:0.56589146;stroke:none;stroke-width:0.39034647;stroke-linecap:round;stroke-linejoin:round;stroke-miterlimit:4;stroke-dasharray:none;stroke-dashoffset:0;stroke-opacity:0.81007756" />
    <path
       style="opacity:1;fill:#2b2000;fill-opacity:0.56589146;stroke:none;stroke-width:0.40000001;stroke-linecap:round;stroke-linejoin:round;stroke-miterlimit:4;stroke-dasharray:none;stroke-dashoffset:0;stroke-opacity:0.81007756"
       d="m 150.80964,143.78089 3.67565,13.80555 0.36101,-12.01133 c -1.4003,0.76285 -2.70563,-0.83503 -4.03666,-1.79422 z"
       id="path5286"
       inkscape:connector-curvature="0"
       sodipodi:nodetypes="cccc" />
    <path
       style="opacity:1;fill:#590000;fill-opacity:1;stroke:none;stroke-width:3.77952766;stroke-linecap:round;stroke-linejoin:round;stroke-miterlimit:4;stroke-dasharray:none;stroke-dashoffset:0;stroke-opacity:1"
       d="M 374.50781 145.9043 C 380.51953 153.02671 389.41653 158.14339 400.2793 157.44531 C 418.92968 156.24679 433.17322 143.44335 432.56445 121.64844 C 432.29575 112.02855 428.44631 103.66072 421.5625 98.060547 C 422.07324 98.686854 422.67952 99.238379 423.13477 99.90625 C 424.26741 101.5679 425.2281 103.35286 426.01172 105.24219 C 426.79533 107.13151 427.40141 109.12447 427.82812 111.19922 C 428.25484 113.27397 428.5025 115.43051 428.56445 117.64844 C 428.64055 120.3728 428.48287 122.95629 428.11523 125.39453 C 427.7476 127.83277 427.16899 130.12566 426.39844 132.26758 C 425.62788 134.40949 424.66589 136.40094 423.5332 138.23633 C 422.40052 140.07172 421.09658 141.75086 419.64258 143.26953 C 418.18857 144.7882 416.58414 146.14613 414.84961 147.33789 C 413.11508 148.52965 411.2516 149.55552 409.27734 150.41016 C 407.30309 151.2648 405.2181 151.9497 403.04492 152.45703 C 400.87175 152.96436 398.61059 153.2955 396.2793 153.44531 C 393.80407 153.60438 391.42348 153.46393 389.1543 153.07031 C 386.88511 152.67669 384.7275 152.02968 382.69141 151.16992 C 380.65531 150.31016 378.74079 149.23935 376.96484 148 C 376.07459 147.37873 375.32759 146.60463 374.50781 145.9043 z "
       id="path5293"
       transform="scale(0.26458333)" />
    <path
       style="opacity:1;fill:#000000;fill-opacity:0.46899223;stroke:none;stroke-width:0.40000001;stroke-linecap:round;stroke-linejoin:round;stroke-miterlimit:4;stroke-dasharray:none;stroke-dashoffset:0;stroke-opacity:0.81007756"
       d="m 66.288385,208.49792 c 9.684581,3.84327 65.924125,1.71572 72.127645,-0.79796 4.24205,-1.71888 9.13418,-4.34756 11.39464,-6.66551 2.09751,-2.15086 5.05141,-7.46425 5.05141,-7.46425 l -2.68634,9.6264 c -2.73481,3.05564 -5.69922,5.92759 -9.55945,8.08289 -11.75953,1.06039 -22.60791,0.75406 -33.9114,1.13038 H 76.30066 c -3.435211,-1.14101 -7.197165,-1.73744 -10.012275,-3.91195 z"
       id="path5297"
       inkscape:connector-curvature="0"
       sodipodi:nodetypes="csscccccc" />
    <path
       style="opacity:1;fill:#160000;fill-opacity:0.61240312;stroke:none;stroke-width:1;stroke-linecap:round;stroke-linejoin:round;stroke-miterlimit:4;stroke-dasharray:none;stroke-dashoffset:0;stroke-opacity:0.81007756"
       d="m 49.571505,163.15658 c 0,0 -1.925793,3.52534 -5.368624,3.57409 1.524593,1.17535 3.586918,7.12729 3.630661,11.70543 0.02268,2.37398 4.60579,-1.54872 4.495943,-1.58534 -0.04996,-8.32828 -1.351769,-10.78036 -2.75798,-13.69418 z"
       id="path5299"
       inkscape:connector-curvature="0"
       sodipodi:nodetypes="ccscc" />
    <path
       style="opacity:1;fill:#160000;fill-opacity:0.61240312;stroke:none;stroke-width:1;stroke-linecap:round;stroke-linejoin:round;stroke-miterlimit:4;stroke-dasharray:none;stroke-dashoffset:0;stroke-opacity:0.81007756"
       d="m 29.850813,176.61515 2.132044,-0.047 c 0,0 -0.03532,-0.6121 0,-1.53789 0.01767,-0.4629 0.05262,-1.00417 0.118856,-1.58647 0.06623,-0.5823 0.163595,-1.20596 0.304893,-1.83296 0.141298,-0.62701 0.326617,-1.25765 0.569473,-1.85467 0.242856,-0.59702 0.54325,-1.16028 0.914157,-1.65261 0.185451,-0.24617 0.388381,-0.47459 0.610814,-0.68058 0.222435,-0.20599 0.464362,-0.38975 0.727088,-0.54622 0.262726,-0.15648 0.546333,-0.28582 0.852662,-0.38344 0.229947,-0.0733 0.485924,-0.10918 0.742072,-0.14469 0.07599,-0.0785 0.155165,-0.19584 0.228928,-0.2527 -3.442832,-0.0488 -4.733978,1.90317 -4.733978,1.90317 -2.701758,4.22695 -2.413026,7.00324 -2.467009,8.61607 z"
       id="path5301"
       inkscape:connector-curvature="0"
       sodipodi:nodetypes="cccsscsscccccc" />
    <path
       sodipodi:nodetypes="ccscc"
       inkscape:connector-curvature="0"
       id="path5308"
       d="m 184.41414,161.41315 c 0,0 -1.92579,3.52534 -5.36862,3.57409 1.52459,1.17535 3.58691,7.12729 3.63066,11.70543 0.0227,2.37398 4.60579,-1.54872 4.49594,-1.58534 -0.05,-8.32828 -1.35177,-10.78036 -2.75798,-13.69418 z"
       style="opacity:1;fill:#160000;fill-opacity:0.61240312;stroke:none;stroke-width:1;stroke-linecap:round;stroke-linejoin:round;stroke-miterlimit:4;stroke-dasharray:none;stroke-dashoffset:0;stroke-opacity:0.81007756" />
    <path
       sodipodi:nodetypes="cccsscsscccccc"
       inkscape:connector-curvature="0"
       id="path5310"
       d="m 164.69345,174.87172 2.13204,-0.047 c 0,0 -0.0353,-0.6121 0,-1.53789 0.0177,-0.4629 0.0526,-1.00417 0.11886,-1.58647 0.0662,-0.5823 0.16359,-1.20596 0.30489,-1.83296 0.1413,-0.62701 0.32662,-1.25765 0.56947,-1.85467 0.24286,-0.59702 0.54325,-1.16028 0.91416,-1.65261 0.18545,-0.24617 0.38838,-0.47459 0.61081,-0.68058 0.22244,-0.20599 0.46437,-0.38975 0.72709,-0.54622 0.26273,-0.15648 0.54634,-0.28582 0.85266,-0.38344 0.22995,-0.0733 0.48593,-0.10918 0.74208,-0.14469 0.076,-0.0785 0.15516,-0.19584 0.22893,-0.2527 -3.44284,-0.0488 -4.73398,1.90317 -4.73398,1.90317 -2.70176,4.22695 -2.41303,7.00324 -2.46701,8.61607 z"
       style="opacity:1;fill:#160000;fill-opacity:0.61240312;stroke:none;stroke-width:1;stroke-linecap:round;stroke-linejoin:round;stroke-miterlimit:4;stroke-dasharray:none;stroke-dashoffset:0;stroke-opacity:0.81007756" />
    <path
       style="opacity:1;fill:#160000;fill-opacity:0.61240312;stroke:none;stroke-width:1;stroke-linecap:round;stroke-linejoin:round;stroke-miterlimit:4;stroke-dasharray:none;stroke-dashoffset:0;stroke-opacity:0.81007756"
       d="m 92.284917,244.60769 3.087764,-12.79296 6.549929,10.26762 c 0,0 -3.742814,3.86213 -3.742814,3.86213 z"
       id="path5312"
       inkscape:connector-curvature="0" />
    <path
       inkscape:connector-curvature="0"
       id="path5314"
       d="m 123.18455,243.5715 -3.08777,-12.79296 -6.54992,10.26762 c 0,0 3.74281,3.86213 3.74281,3.86213 z"
       style="opacity:1;fill:#160000;fill-opacity:0.61240312;stroke:none;stroke-width:1;stroke-linecap:round;stroke-linejoin:round;stroke-miterlimit:4;stroke-dasharray:none;stroke-dashoffset:0;stroke-opacity:0.81007756" />
  </g>
</svg>
